%TF.GenerationSoftware,KiCad,Pcbnew,10.0.3*%
%TF.CreationDate,2026-07-05T19:49:25+02:00*%
%TF.ProjectId,RGBWW-LED,52474257-572d-44c4-9544-2e6b69636164,1*%
%TF.SameCoordinates,Original*%
%TF.FileFunction,Copper,L1,Top*%
%TF.FilePolarity,Positive*%
%FSLAX46Y46*%
G04 Gerber Fmt 4.6, Leading zero omitted, Abs format (unit mm)*
G04 Created by KiCad (PCBNEW 10.0.3) date 2026-07-05 19:49:25*
%MOMM*%
%LPD*%
G01*
G04 APERTURE LIST*
G04 Aperture macros list*
%AMRoundRect*
0 Rectangle with rounded corners*
0 $1 Rounding radius*
0 $2 $3 $4 $5 $6 $7 $8 $9 X,Y pos of 4 corners*
0 Add a 4 corners polygon primitive as box body*
4,1,4,$2,$3,$4,$5,$6,$7,$8,$9,$2,$3,0*
0 Add four circle primitives for the rounded corners*
1,1,$1+$1,$2,$3*
1,1,$1+$1,$4,$5*
1,1,$1+$1,$6,$7*
1,1,$1+$1,$8,$9*
0 Add four rect primitives between the rounded corners*
20,1,$1+$1,$2,$3,$4,$5,0*
20,1,$1+$1,$4,$5,$6,$7,0*
20,1,$1+$1,$6,$7,$8,$9,0*
20,1,$1+$1,$8,$9,$2,$3,0*%
G04 Aperture macros list end*
%TA.AperFunction,SMDPad,CuDef*%
%ADD10C,1.000000*%
%TD*%
%TA.AperFunction,SMDPad,CuDef*%
%ADD11RoundRect,0.225000X-0.250000X0.225000X-0.250000X-0.225000X0.250000X-0.225000X0.250000X0.225000X0*%
%TD*%
%TA.AperFunction,SMDPad,CuDef*%
%ADD12RoundRect,0.225000X-0.225000X-0.250000X0.225000X-0.250000X0.225000X0.250000X-0.225000X0.250000X0*%
%TD*%
%TA.AperFunction,SMDPad,CuDef*%
%ADD13RoundRect,0.200000X-0.275000X0.200000X-0.275000X-0.200000X0.275000X-0.200000X0.275000X0.200000X0*%
%TD*%
%TA.AperFunction,SMDPad,CuDef*%
%ADD14RoundRect,0.200000X0.200000X0.275000X-0.200000X0.275000X-0.200000X-0.275000X0.200000X-0.275000X0*%
%TD*%
%TA.AperFunction,SMDPad,CuDef*%
%ADD15RoundRect,0.200000X-0.200000X-0.275000X0.200000X-0.275000X0.200000X0.275000X-0.200000X0.275000X0*%
%TD*%
%TA.AperFunction,SMDPad,CuDef*%
%ADD16RoundRect,0.072000X-0.678000X-0.168000X0.678000X-0.168000X0.678000X0.168000X-0.678000X0.168000X0*%
%TD*%
%TA.AperFunction,SMDPad,CuDef*%
%ADD17RoundRect,0.150000X-0.637500X-0.150000X0.637500X-0.150000X0.637500X0.150000X-0.637500X0.150000X0*%
%TD*%
%TA.AperFunction,ComponentPad*%
%ADD18R,1.700000X1.700000*%
%TD*%
%TA.AperFunction,ComponentPad*%
%ADD19C,1.700000*%
%TD*%
%TA.AperFunction,ViaPad*%
%ADD20C,0.600000*%
%TD*%
%TA.AperFunction,Conductor*%
%ADD21C,0.250000*%
%TD*%
%TA.AperFunction,Conductor*%
%ADD22C,0.750000*%
%TD*%
%TA.AperFunction,Conductor*%
%ADD23C,0.200000*%
%TD*%
%TA.AperFunction,Conductor*%
%ADD24C,2.000000*%
%TD*%
%TA.AperFunction,Profile*%
%ADD25C,0.050000*%
%TD*%
G04 APERTURE END LIST*
D10*
%TO.P,F2,*%
%TO.N,*%
X55000000Y-83000000D03*
%TD*%
D11*
%TO.P,C10,1*%
%TO.N,Net-(U20-Vdd)*%
X74500000Y-79500000D03*
%TO.P,C10,2*%
%TO.N,GND*%
X74500000Y-81050000D03*
%TD*%
%TO.P,C8,1*%
%TO.N,Net-(U16-Vdd)*%
X94500000Y-78525000D03*
%TO.P,C8,2*%
%TO.N,GND*%
X94500000Y-80075000D03*
%TD*%
D12*
%TO.P,C2,1*%
%TO.N,+12V*%
X139225000Y-77000000D03*
%TO.P,C2,2*%
%TO.N,GND*%
X140775000Y-77000000D03*
%TD*%
D11*
%TO.P,C4,1*%
%TO.N,Net-(U8-Vdd)*%
X136750000Y-79225000D03*
%TO.P,C4,2*%
%TO.N,GND*%
X136750000Y-80775000D03*
%TD*%
D12*
%TO.P,C7,1*%
%TO.N,+12V*%
X76225000Y-77000000D03*
%TO.P,C7,2*%
%TO.N,GND*%
X77775000Y-77000000D03*
%TD*%
D11*
%TO.P,C14,1*%
%TO.N,Net-(U28-Vdd)*%
X199000000Y-79225000D03*
%TO.P,C14,2*%
%TO.N,GND*%
X199000000Y-80775000D03*
%TD*%
D12*
%TO.P,C11,1*%
%TO.N,+12V*%
X160225000Y-77000000D03*
%TO.P,C11,2*%
%TO.N,GND*%
X161775000Y-77000000D03*
%TD*%
%TO.P,C3,1*%
%TO.N,+12V*%
X118225000Y-77000000D03*
%TO.P,C3,2*%
%TO.N,GND*%
X119775000Y-77000000D03*
%TD*%
D11*
%TO.P,C9,1*%
%TO.N,+12V*%
X56000000Y-76225000D03*
%TO.P,C9,2*%
%TO.N,GND*%
X56000000Y-77775000D03*
%TD*%
%TO.P,C1,1*%
%TO.N,Net-(U3-Vdd)*%
X157600000Y-78525000D03*
%TO.P,C1,2*%
%TO.N,GND*%
X157600000Y-80075000D03*
%TD*%
D12*
%TO.P,C13,1*%
%TO.N,+12V*%
X181225000Y-77000000D03*
%TO.P,C13,2*%
%TO.N,GND*%
X182775000Y-77000000D03*
%TD*%
D11*
%TO.P,C6,1*%
%TO.N,Net-(U12-Vdd)*%
X115750000Y-79225000D03*
%TO.P,C6,2*%
%TO.N,GND*%
X115750000Y-80775000D03*
%TD*%
%TO.P,C12,1*%
%TO.N,Net-(U24-Vdd)*%
X178750000Y-79225000D03*
%TO.P,C12,2*%
%TO.N,GND*%
X178750000Y-80775000D03*
%TD*%
D12*
%TO.P,C5,1*%
%TO.N,+12V*%
X97225000Y-77000000D03*
%TO.P,C5,2*%
%TO.N,GND*%
X98775000Y-77000000D03*
%TD*%
D13*
%TO.P,R13,1*%
%TO.N,Net-(U17-W1-C)*%
X98750000Y-78750000D03*
%TO.P,R13,2*%
%TO.N,Net-(U12-OutW1)*%
X98750000Y-80400000D03*
%TD*%
%TO.P,R10,1*%
%TO.N,Net-(U15-B-C)*%
X125000000Y-80175000D03*
%TO.P,R10,2*%
%TO.N,Net-(U8-OutB)*%
X125000000Y-81825000D03*
%TD*%
%TO.P,R36,1*%
%TO.N,Net-(U23-B-C)*%
X167000000Y-80175000D03*
%TO.P,R36,2*%
%TO.N,Net-(U24-OutB)*%
X167000000Y-81825000D03*
%TD*%
%TO.P,R22,1*%
%TO.N,Net-(U18-B-C)*%
X83000000Y-80175000D03*
%TO.P,R22,2*%
%TO.N,Net-(U16-OutB)*%
X83000000Y-81825000D03*
%TD*%
%TO.P,R9,1*%
%TO.N,Net-(U15-R-C)*%
X123000000Y-80175000D03*
%TO.P,R9,2*%
%TO.N,Net-(U8-OutR)*%
X123000000Y-81825000D03*
%TD*%
%TO.P,R34,1*%
%TO.N,Net-(U23-G-C)*%
X163400000Y-80175000D03*
%TO.P,R34,2*%
%TO.N,Net-(U24-OutG)*%
X163400000Y-81825000D03*
%TD*%
%TO.P,R20,1*%
%TO.N,Net-(U18-G-C)*%
X79000000Y-80175000D03*
%TO.P,R20,2*%
%TO.N,Net-(U16-OutG)*%
X79000000Y-81825000D03*
%TD*%
%TO.P,R17,1*%
%TO.N,Net-(U17-W2-C)*%
X106000000Y-80175000D03*
%TO.P,R17,2*%
%TO.N,Net-(U12-OutW2)*%
X106000000Y-81825000D03*
%TD*%
%TO.P,R15,1*%
%TO.N,Net-(U17-R-C)*%
X102000000Y-80175000D03*
%TO.P,R15,2*%
%TO.N,Net-(U12-OutR)*%
X102000000Y-81825000D03*
%TD*%
%TO.P,R7,1*%
%TO.N,Net-(U15-W1-C)*%
X119000000Y-80175000D03*
%TO.P,R7,2*%
%TO.N,Net-(U8-OutW1)*%
X119000000Y-81825000D03*
%TD*%
%TO.P,R5,1*%
%TO.N,Net-(U14-B-C)*%
X146000000Y-80175000D03*
%TO.P,R5,2*%
%TO.N,Net-(U3-OutB)*%
X146000000Y-81825000D03*
%TD*%
%TO.P,R33,1*%
%TO.N,Net-(U23-W1-C)*%
X161800000Y-78575000D03*
%TO.P,R33,2*%
%TO.N,Net-(U24-OutW1)*%
X161800000Y-80225000D03*
%TD*%
%TO.P,R29,1*%
%TO.N,Net-(U19-W2-C)*%
X65000000Y-80175000D03*
%TO.P,R29,2*%
%TO.N,Net-(U20-OutW2)*%
X65000000Y-81825000D03*
%TD*%
D14*
%TO.P,R12,1*%
%TO.N,+12V*%
X137075000Y-77000000D03*
%TO.P,R12,2*%
%TO.N,Net-(U8-Vdd)*%
X135425000Y-77000000D03*
%TD*%
D13*
%TO.P,R16,1*%
%TO.N,Net-(U17-B-C)*%
X104000000Y-80175000D03*
%TO.P,R16,2*%
%TO.N,Net-(U12-OutB)*%
X104000000Y-81825000D03*
%TD*%
D14*
%TO.P,R31,1*%
%TO.N,/Bout*%
X53000000Y-83000000D03*
%TO.P,R31,2*%
%TO.N,GND*%
X51350000Y-83000000D03*
%TD*%
D13*
%TO.P,R14,1*%
%TO.N,Net-(U17-G-C)*%
X100500000Y-80175000D03*
%TO.P,R14,2*%
%TO.N,Net-(U12-OutG)*%
X100500000Y-81825000D03*
%TD*%
D14*
%TO.P,R18,1*%
%TO.N,+12V*%
X115825000Y-77000000D03*
%TO.P,R18,2*%
%TO.N,Net-(U12-Vdd)*%
X114175000Y-77000000D03*
%TD*%
D13*
%TO.P,R26,1*%
%TO.N,Net-(U19-G-C)*%
X59000000Y-80175000D03*
%TO.P,R26,2*%
%TO.N,Net-(U20-OutG)*%
X59000000Y-81825000D03*
%TD*%
%TO.P,R19,1*%
%TO.N,Net-(U18-W1-C)*%
X77000000Y-80175000D03*
%TO.P,R19,2*%
%TO.N,Net-(U16-OutW1)*%
X77000000Y-81825000D03*
%TD*%
%TO.P,R42,1*%
%TO.N,Net-(U27-B-C)*%
X187500000Y-80175000D03*
%TO.P,R42,2*%
%TO.N,Net-(U28-OutB)*%
X187500000Y-81825000D03*
%TD*%
%TO.P,R23,1*%
%TO.N,Net-(U18-W2-C)*%
X85000000Y-80175000D03*
%TO.P,R23,2*%
%TO.N,Net-(U16-OutW2)*%
X85000000Y-81825000D03*
%TD*%
%TO.P,R4,1*%
%TO.N,Net-(U14-R-C)*%
X144000000Y-80175000D03*
%TO.P,R4,2*%
%TO.N,Net-(U3-OutR)*%
X144000000Y-81825000D03*
%TD*%
D14*
%TO.P,R1,1*%
%TO.N,+12V*%
X158075000Y-77000000D03*
%TO.P,R1,2*%
%TO.N,Net-(U3-Vdd)*%
X156425000Y-77000000D03*
%TD*%
D15*
%TO.P,R32,1*%
%TO.N,/Dout*%
X59350000Y-84000000D03*
%TO.P,R32,2*%
%TO.N,GND*%
X61000000Y-84000000D03*
%TD*%
D13*
%TO.P,R40,1*%
%TO.N,Net-(U27-G-C)*%
X184000000Y-80175000D03*
%TO.P,R40,2*%
%TO.N,Net-(U28-OutG)*%
X184000000Y-81825000D03*
%TD*%
%TO.P,R8,1*%
%TO.N,Net-(U15-G-C)*%
X121000000Y-80175000D03*
%TO.P,R8,2*%
%TO.N,Net-(U8-OutG)*%
X121000000Y-81825000D03*
%TD*%
D14*
%TO.P,R38,1*%
%TO.N,+12V*%
X178825000Y-77000000D03*
%TO.P,R38,2*%
%TO.N,Net-(U24-Vdd)*%
X177175000Y-77000000D03*
%TD*%
D13*
%TO.P,R43,1*%
%TO.N,Net-(U27-W2-C)*%
X189250000Y-80175000D03*
%TO.P,R43,2*%
%TO.N,Net-(U28-OutW2)*%
X189250000Y-81825000D03*
%TD*%
D14*
%TO.P,R44,1*%
%TO.N,+12V*%
X199475000Y-77350000D03*
%TO.P,R44,2*%
%TO.N,Net-(U28-Vdd)*%
X197825000Y-77350000D03*
%TD*%
D13*
%TO.P,R3,1*%
%TO.N,Net-(U14-G-C)*%
X142000000Y-80175000D03*
%TO.P,R3,2*%
%TO.N,Net-(U3-OutG)*%
X142000000Y-81825000D03*
%TD*%
%TO.P,R21,1*%
%TO.N,Net-(U18-R-C)*%
X81000000Y-80175000D03*
%TO.P,R21,2*%
%TO.N,Net-(U16-OutR)*%
X81000000Y-81825000D03*
%TD*%
%TO.P,R41,1*%
%TO.N,Net-(U27-R-C)*%
X185750000Y-80175000D03*
%TO.P,R41,2*%
%TO.N,Net-(U28-OutR)*%
X185750000Y-81825000D03*
%TD*%
%TO.P,R39,1*%
%TO.N,Net-(U27-W1-C)*%
X182000000Y-80175000D03*
%TO.P,R39,2*%
%TO.N,Net-(U28-OutW1)*%
X182000000Y-81825000D03*
%TD*%
D14*
%TO.P,R24,1*%
%TO.N,+12V*%
X95075000Y-77000000D03*
%TO.P,R24,2*%
%TO.N,Net-(U16-Vdd)*%
X93425000Y-77000000D03*
%TD*%
D13*
%TO.P,R37,1*%
%TO.N,Net-(U23-W2-C)*%
X169000000Y-80175000D03*
%TO.P,R37,2*%
%TO.N,Net-(U24-OutW2)*%
X169000000Y-81825000D03*
%TD*%
%TO.P,R35,1*%
%TO.N,Net-(U23-R-C)*%
X165000000Y-80175000D03*
%TO.P,R35,2*%
%TO.N,Net-(U24-OutR)*%
X165000000Y-81825000D03*
%TD*%
%TO.P,R2,1*%
%TO.N,Net-(U14-W1-C)*%
X140000000Y-80175000D03*
%TO.P,R2,2*%
%TO.N,Net-(U3-OutW1)*%
X140000000Y-81825000D03*
%TD*%
%TO.P,R6,1*%
%TO.N,Net-(U14-W2-C)*%
X148000000Y-80175000D03*
%TO.P,R6,2*%
%TO.N,Net-(U3-OutW2)*%
X148000000Y-81825000D03*
%TD*%
%TO.P,R28,1*%
%TO.N,Net-(U19-B-C)*%
X63000000Y-80175000D03*
%TO.P,R28,2*%
%TO.N,Net-(U20-OutB)*%
X63000000Y-81825000D03*
%TD*%
D14*
%TO.P,R30,1*%
%TO.N,+12V*%
X74075000Y-77000000D03*
%TO.P,R30,2*%
%TO.N,Net-(U20-Vdd)*%
X72425000Y-77000000D03*
%TD*%
D13*
%TO.P,R27,1*%
%TO.N,Net-(U19-R-C)*%
X61000000Y-80175000D03*
%TO.P,R27,2*%
%TO.N,Net-(U20-OutR)*%
X61000000Y-81825000D03*
%TD*%
%TO.P,R25,1*%
%TO.N,Net-(U19-W1-C)*%
X57000000Y-80175000D03*
%TO.P,R25,2*%
%TO.N,Net-(U20-OutW1)*%
X57000000Y-81825000D03*
%TD*%
%TO.P,R11,1*%
%TO.N,Net-(U15-W2-C)*%
X127000000Y-80175000D03*
%TO.P,R11,2*%
%TO.N,Net-(U8-OutW2)*%
X127000000Y-81825000D03*
%TD*%
D16*
%TO.P,U6,1,W1-A_1*%
%TO.N,+12V*%
X54750000Y-71030000D03*
%TO.P,U6,2,G-A_2*%
X54750000Y-71990000D03*
%TO.P,U6,3,R-A_3*%
X54750000Y-72950000D03*
%TO.P,U6,4,B-A_4*%
X54750000Y-73910000D03*
%TO.P,U6,5,W2-A_5*%
X54750000Y-74870000D03*
%TO.P,U6,6,W2-C_6*%
%TO.N,Net-(U13-W2-A)*%
X59250000Y-74870000D03*
%TO.P,U6,7,B-C_7*%
%TO.N,Net-(U13-B-A)*%
X59250000Y-73910000D03*
%TO.P,U6,8,R-C_8*%
%TO.N,Net-(U13-R-A)*%
X59250000Y-72950000D03*
%TO.P,U6,9,G-C_9*%
%TO.N,Net-(U13-G-A)*%
X59250000Y-71990000D03*
%TO.P,U6,10,W1-C_10*%
%TO.N,Net-(U13-W1-A)*%
X59250000Y-71030000D03*
%TD*%
%TO.P,U13,10,W1-C_10*%
%TO.N,Net-(U13-W1-C)*%
X66250000Y-71030000D03*
%TO.P,U13,9,G-C_9*%
%TO.N,Net-(U13-G-C)*%
X66250000Y-71990000D03*
%TO.P,U13,8,R-C_8*%
%TO.N,Net-(U13-R-C)*%
X66250000Y-72950000D03*
%TO.P,U13,7,B-C_7*%
%TO.N,Net-(U13-B-C)*%
X66250000Y-73910000D03*
%TO.P,U13,6,W2-C_6*%
%TO.N,Net-(U13-W2-C)*%
X66250000Y-74870000D03*
%TO.P,U13,5,W2-A_5*%
%TO.N,Net-(U13-W2-A)*%
X61750000Y-74870000D03*
%TO.P,U13,4,B-A_4*%
%TO.N,Net-(U13-B-A)*%
X61750000Y-73910000D03*
%TO.P,U13,3,R-A_3*%
%TO.N,Net-(U13-R-A)*%
X61750000Y-72950000D03*
%TO.P,U13,2,G-A_2*%
%TO.N,Net-(U13-G-A)*%
X61750000Y-71990000D03*
%TO.P,U13,1,W1-A_1*%
%TO.N,Net-(U13-W1-A)*%
X61750000Y-71030000D03*
%TD*%
%TO.P,U17,1,W1-A_1*%
%TO.N,Net-(U10-W1-C)*%
X110750000Y-71030000D03*
%TO.P,U17,2,G-A_2*%
%TO.N,Net-(U10-G-C)*%
X110750000Y-71990000D03*
%TO.P,U17,3,R-A_3*%
%TO.N,Net-(U10-R-C)*%
X110750000Y-72950000D03*
%TO.P,U17,4,B-A_4*%
%TO.N,Net-(U10-B-C)*%
X110750000Y-73910000D03*
%TO.P,U17,5,W2-A_5*%
%TO.N,Net-(U10-W2-C)*%
X110750000Y-74870000D03*
%TO.P,U17,6,W2-C_6*%
%TO.N,Net-(U17-W2-C)*%
X115250000Y-74870000D03*
%TO.P,U17,7,B-C_7*%
%TO.N,Net-(U17-B-C)*%
X115250000Y-73910000D03*
%TO.P,U17,8,R-C_8*%
%TO.N,Net-(U17-R-C)*%
X115250000Y-72950000D03*
%TO.P,U17,9,G-C_9*%
%TO.N,Net-(U17-G-C)*%
X115250000Y-71990000D03*
%TO.P,U17,10,W1-C_10*%
%TO.N,Net-(U17-W1-C)*%
X115250000Y-71030000D03*
%TD*%
%TO.P,U22,1,W1-A_1*%
%TO.N,Net-(U21-W1-C)*%
X166750000Y-71030000D03*
%TO.P,U22,2,G-A_2*%
%TO.N,Net-(U21-G-C)*%
X166750000Y-71990000D03*
%TO.P,U22,3,R-A_3*%
%TO.N,Net-(U21-R-C)*%
X166750000Y-72950000D03*
%TO.P,U22,4,B-A_4*%
%TO.N,Net-(U21-B-C)*%
X166750000Y-73910000D03*
%TO.P,U22,5,W2-A_5*%
%TO.N,Net-(U21-W2-C)*%
X166750000Y-74870000D03*
%TO.P,U22,6,W2-C_6*%
%TO.N,Net-(U22-W2-C)*%
X171250000Y-74870000D03*
%TO.P,U22,7,B-C_7*%
%TO.N,Net-(U22-B-C)*%
X171250000Y-73910000D03*
%TO.P,U22,8,R-C_8*%
%TO.N,Net-(U22-R-C)*%
X171250000Y-72950000D03*
%TO.P,U22,9,G-C_9*%
%TO.N,Net-(U22-G-C)*%
X171250000Y-71990000D03*
%TO.P,U22,10,W1-C_10*%
%TO.N,Net-(U22-W1-C)*%
X171250000Y-71030000D03*
%TD*%
%TO.P,U18,1,W1-A_1*%
%TO.N,Net-(U11-W1-C)*%
X89750000Y-71030000D03*
%TO.P,U18,2,G-A_2*%
%TO.N,Net-(U11-G-C)*%
X89750000Y-71990000D03*
%TO.P,U18,3,R-A_3*%
%TO.N,Net-(U11-R-C)*%
X89750000Y-72950000D03*
%TO.P,U18,4,B-A_4*%
%TO.N,Net-(U11-B-C)*%
X89750000Y-73910000D03*
%TO.P,U18,5,W2-A_5*%
%TO.N,Net-(U11-W2-C)*%
X89750000Y-74870000D03*
%TO.P,U18,6,W2-C_6*%
%TO.N,Net-(U18-W2-C)*%
X94250000Y-74870000D03*
%TO.P,U18,7,B-C_7*%
%TO.N,Net-(U18-B-C)*%
X94250000Y-73910000D03*
%TO.P,U18,8,R-C_8*%
%TO.N,Net-(U18-R-C)*%
X94250000Y-72950000D03*
%TO.P,U18,9,G-C_9*%
%TO.N,Net-(U18-G-C)*%
X94250000Y-71990000D03*
%TO.P,U18,10,W1-C_10*%
%TO.N,Net-(U18-W1-C)*%
X94250000Y-71030000D03*
%TD*%
%TO.P,U14,1,W1-A_1*%
%TO.N,Net-(U14-W1-A)*%
X152750000Y-71030000D03*
%TO.P,U14,2,G-A_2*%
%TO.N,Net-(U14-G-A)*%
X152750000Y-71990000D03*
%TO.P,U14,3,R-A_3*%
%TO.N,Net-(U14-R-A)*%
X152750000Y-72950000D03*
%TO.P,U14,4,B-A_4*%
%TO.N,Net-(U14-B-A)*%
X152750000Y-73910000D03*
%TO.P,U14,5,W2-A_5*%
%TO.N,Net-(U14-W2-A)*%
X152750000Y-74870000D03*
%TO.P,U14,6,W2-C_6*%
%TO.N,Net-(U14-W2-C)*%
X157250000Y-74870000D03*
%TO.P,U14,7,B-C_7*%
%TO.N,Net-(U14-B-C)*%
X157250000Y-73910000D03*
%TO.P,U14,8,R-C_8*%
%TO.N,Net-(U14-R-C)*%
X157250000Y-72950000D03*
%TO.P,U14,9,G-C_9*%
%TO.N,Net-(U14-G-C)*%
X157250000Y-71990000D03*
%TO.P,U14,10,W1-C_10*%
%TO.N,Net-(U14-W1-C)*%
X157250000Y-71030000D03*
%TD*%
%TO.P,U25,1,W1-A_1*%
%TO.N,+12V*%
X180750000Y-71030000D03*
%TO.P,U25,2,G-A_2*%
X180750000Y-71990000D03*
%TO.P,U25,3,R-A_3*%
X180750000Y-72950000D03*
%TO.P,U25,4,B-A_4*%
X180750000Y-73910000D03*
%TO.P,U25,5,W2-A_5*%
X180750000Y-74870000D03*
%TO.P,U25,6,W2-C_6*%
%TO.N,Net-(U25-W2-C)*%
X185250000Y-74870000D03*
%TO.P,U25,7,B-C_7*%
%TO.N,Net-(U25-B-C)*%
X185250000Y-73910000D03*
%TO.P,U25,8,R-C_8*%
%TO.N,Net-(U25-R-C)*%
X185250000Y-72950000D03*
%TO.P,U25,9,G-C_9*%
%TO.N,Net-(U25-G-C)*%
X185250000Y-71990000D03*
%TO.P,U25,10,W1-C_10*%
%TO.N,Net-(U25-W1-C)*%
X185250000Y-71030000D03*
%TD*%
%TO.P,U2,1,W1-A_1*%
%TO.N,+12V*%
X117750000Y-71030000D03*
%TO.P,U2,2,G-A_2*%
X117750000Y-71990000D03*
%TO.P,U2,3,R-A_3*%
X117750000Y-72950000D03*
%TO.P,U2,4,B-A_4*%
X117750000Y-73910000D03*
%TO.P,U2,5,W2-A_5*%
X117750000Y-74870000D03*
%TO.P,U2,6,W2-C_6*%
%TO.N,Net-(U2-W2-C)*%
X122250000Y-74870000D03*
%TO.P,U2,7,B-C_7*%
%TO.N,Net-(U2-B-C)*%
X122250000Y-73910000D03*
%TO.P,U2,8,R-C_8*%
%TO.N,Net-(U2-R-C)*%
X122250000Y-72950000D03*
%TO.P,U2,9,G-C_9*%
%TO.N,Net-(U2-G-C)*%
X122250000Y-71990000D03*
%TO.P,U2,10,W1-C_10*%
%TO.N,Net-(U2-W1-C)*%
X122250000Y-71030000D03*
%TD*%
%TO.P,U27,1,W1-A_1*%
%TO.N,Net-(U26-W1-C)*%
X194750000Y-71030000D03*
%TO.P,U27,2,G-A_2*%
%TO.N,Net-(U26-G-C)*%
X194750000Y-71990000D03*
%TO.P,U27,3,R-A_3*%
%TO.N,Net-(U26-R-C)*%
X194750000Y-72950000D03*
%TO.P,U27,4,B-A_4*%
%TO.N,Net-(U26-B-C)*%
X194750000Y-73910000D03*
%TO.P,U27,5,W2-A_5*%
%TO.N,Net-(U26-W2-C)*%
X194750000Y-74870000D03*
%TO.P,U27,6,W2-C_6*%
%TO.N,Net-(U27-W2-C)*%
X199250000Y-74870000D03*
%TO.P,U27,7,B-C_7*%
%TO.N,Net-(U27-B-C)*%
X199250000Y-73910000D03*
%TO.P,U27,8,R-C_8*%
%TO.N,Net-(U27-R-C)*%
X199250000Y-72950000D03*
%TO.P,U27,9,G-C_9*%
%TO.N,Net-(U27-G-C)*%
X199250000Y-71990000D03*
%TO.P,U27,10,W1-C_10*%
%TO.N,Net-(U27-W1-C)*%
X199250000Y-71030000D03*
%TD*%
%TO.P,U4,1,W1-A_1*%
%TO.N,+12V*%
X96750000Y-71030000D03*
%TO.P,U4,2,G-A_2*%
X96750000Y-71990000D03*
%TO.P,U4,3,R-A_3*%
X96750000Y-72950000D03*
%TO.P,U4,4,B-A_4*%
X96750000Y-73910000D03*
%TO.P,U4,5,W2-A_5*%
X96750000Y-74870000D03*
%TO.P,U4,6,W2-C_6*%
%TO.N,Net-(U10-W2-A)*%
X101250000Y-74870000D03*
%TO.P,U4,7,B-C_7*%
%TO.N,Net-(U10-B-A)*%
X101250000Y-73910000D03*
%TO.P,U4,8,R-C_8*%
%TO.N,Net-(U10-R-A)*%
X101250000Y-72950000D03*
%TO.P,U4,9,G-C_9*%
%TO.N,Net-(U10-G-A)*%
X101250000Y-71990000D03*
%TO.P,U4,10,W1-C_10*%
%TO.N,Net-(U10-W1-A)*%
X101250000Y-71030000D03*
%TD*%
%TO.P,U9,1,W1-A_1*%
%TO.N,Net-(U2-W1-C)*%
X124750000Y-71030000D03*
%TO.P,U9,2,G-A_2*%
%TO.N,Net-(U2-G-C)*%
X124750000Y-71990000D03*
%TO.P,U9,3,R-A_3*%
%TO.N,Net-(U2-R-C)*%
X124750000Y-72950000D03*
%TO.P,U9,4,B-A_4*%
%TO.N,Net-(U2-B-C)*%
X124750000Y-73910000D03*
%TO.P,U9,5,W2-A_5*%
%TO.N,Net-(U2-W2-C)*%
X124750000Y-74870000D03*
%TO.P,U9,6,W2-C_6*%
%TO.N,Net-(U15-W2-A)*%
X129250000Y-74870000D03*
%TO.P,U9,7,B-C_7*%
%TO.N,Net-(U15-B-A)*%
X129250000Y-73910000D03*
%TO.P,U9,8,R-C_8*%
%TO.N,Net-(U15-R-A)*%
X129250000Y-72950000D03*
%TO.P,U9,9,G-C_9*%
%TO.N,Net-(U15-G-A)*%
X129250000Y-71990000D03*
%TO.P,U9,10,W1-C_10*%
%TO.N,Net-(U15-W1-A)*%
X129250000Y-71030000D03*
%TD*%
%TO.P,U15,1,W1-A_1*%
%TO.N,Net-(U15-W1-A)*%
X131750000Y-71030000D03*
%TO.P,U15,2,G-A_2*%
%TO.N,Net-(U15-G-A)*%
X131750000Y-71990000D03*
%TO.P,U15,3,R-A_3*%
%TO.N,Net-(U15-R-A)*%
X131750000Y-72950000D03*
%TO.P,U15,4,B-A_4*%
%TO.N,Net-(U15-B-A)*%
X131750000Y-73910000D03*
%TO.P,U15,5,W2-A_5*%
%TO.N,Net-(U15-W2-A)*%
X131750000Y-74870000D03*
%TO.P,U15,6,W2-C_6*%
%TO.N,Net-(U15-W2-C)*%
X136250000Y-74870000D03*
%TO.P,U15,7,B-C_7*%
%TO.N,Net-(U15-B-C)*%
X136250000Y-73910000D03*
%TO.P,U15,8,R-C_8*%
%TO.N,Net-(U15-R-C)*%
X136250000Y-72950000D03*
%TO.P,U15,9,G-C_9*%
%TO.N,Net-(U15-G-C)*%
X136250000Y-71990000D03*
%TO.P,U15,10,W1-C_10*%
%TO.N,Net-(U15-W1-C)*%
X136250000Y-71030000D03*
%TD*%
%TO.P,U10,1,W1-A_1*%
%TO.N,Net-(U10-W1-A)*%
X103750000Y-71030000D03*
%TO.P,U10,2,G-A_2*%
%TO.N,Net-(U10-G-A)*%
X103750000Y-71990000D03*
%TO.P,U10,3,R-A_3*%
%TO.N,Net-(U10-R-A)*%
X103750000Y-72950000D03*
%TO.P,U10,4,B-A_4*%
%TO.N,Net-(U10-B-A)*%
X103750000Y-73910000D03*
%TO.P,U10,5,W2-A_5*%
%TO.N,Net-(U10-W2-A)*%
X103750000Y-74870000D03*
%TO.P,U10,6,W2-C_6*%
%TO.N,Net-(U10-W2-C)*%
X108250000Y-74870000D03*
%TO.P,U10,7,B-C_7*%
%TO.N,Net-(U10-B-C)*%
X108250000Y-73910000D03*
%TO.P,U10,8,R-C_8*%
%TO.N,Net-(U10-R-C)*%
X108250000Y-72950000D03*
%TO.P,U10,9,G-C_9*%
%TO.N,Net-(U10-G-C)*%
X108250000Y-71990000D03*
%TO.P,U10,10,W1-C_10*%
%TO.N,Net-(U10-W1-C)*%
X108250000Y-71030000D03*
%TD*%
%TO.P,U11,1,W1-A_1*%
%TO.N,Net-(U11-W1-A)*%
X82750000Y-71030000D03*
%TO.P,U11,2,G-A_2*%
%TO.N,Net-(U11-G-A)*%
X82750000Y-71990000D03*
%TO.P,U11,3,R-A_3*%
%TO.N,Net-(U11-R-A)*%
X82750000Y-72950000D03*
%TO.P,U11,4,B-A_4*%
%TO.N,Net-(U11-B-A)*%
X82750000Y-73910000D03*
%TO.P,U11,5,W2-A_5*%
%TO.N,Net-(U11-W2-A)*%
X82750000Y-74870000D03*
%TO.P,U11,6,W2-C_6*%
%TO.N,Net-(U11-W2-C)*%
X87250000Y-74870000D03*
%TO.P,U11,7,B-C_7*%
%TO.N,Net-(U11-B-C)*%
X87250000Y-73910000D03*
%TO.P,U11,8,R-C_8*%
%TO.N,Net-(U11-R-C)*%
X87250000Y-72950000D03*
%TO.P,U11,9,G-C_9*%
%TO.N,Net-(U11-G-C)*%
X87250000Y-71990000D03*
%TO.P,U11,10,W1-C_10*%
%TO.N,Net-(U11-W1-C)*%
X87250000Y-71030000D03*
%TD*%
%TO.P,U21,1,W1-A_1*%
%TO.N,+12V*%
X159750000Y-71030000D03*
%TO.P,U21,2,G-A_2*%
X159750000Y-71990000D03*
%TO.P,U21,3,R-A_3*%
X159750000Y-72950000D03*
%TO.P,U21,4,B-A_4*%
X159750000Y-73910000D03*
%TO.P,U21,5,W2-A_5*%
X159750000Y-74870000D03*
%TO.P,U21,6,W2-C_6*%
%TO.N,Net-(U21-W2-C)*%
X164250000Y-74870000D03*
%TO.P,U21,7,B-C_7*%
%TO.N,Net-(U21-B-C)*%
X164250000Y-73910000D03*
%TO.P,U21,8,R-C_8*%
%TO.N,Net-(U21-R-C)*%
X164250000Y-72950000D03*
%TO.P,U21,9,G-C_9*%
%TO.N,Net-(U21-G-C)*%
X164250000Y-71990000D03*
%TO.P,U21,10,W1-C_10*%
%TO.N,Net-(U21-W1-C)*%
X164250000Y-71030000D03*
%TD*%
%TO.P,U26,1,W1-A_1*%
%TO.N,Net-(U25-W1-C)*%
X187750000Y-71030000D03*
%TO.P,U26,2,G-A_2*%
%TO.N,Net-(U25-G-C)*%
X187750000Y-71990000D03*
%TO.P,U26,3,R-A_3*%
%TO.N,Net-(U25-R-C)*%
X187750000Y-72950000D03*
%TO.P,U26,4,B-A_4*%
%TO.N,Net-(U25-B-C)*%
X187750000Y-73910000D03*
%TO.P,U26,5,W2-A_5*%
%TO.N,Net-(U25-W2-C)*%
X187750000Y-74870000D03*
%TO.P,U26,6,W2-C_6*%
%TO.N,Net-(U26-W2-C)*%
X192250000Y-74870000D03*
%TO.P,U26,7,B-C_7*%
%TO.N,Net-(U26-B-C)*%
X192250000Y-73910000D03*
%TO.P,U26,8,R-C_8*%
%TO.N,Net-(U26-R-C)*%
X192250000Y-72950000D03*
%TO.P,U26,9,G-C_9*%
%TO.N,Net-(U26-G-C)*%
X192250000Y-71990000D03*
%TO.P,U26,10,W1-C_10*%
%TO.N,Net-(U26-W1-C)*%
X192250000Y-71030000D03*
%TD*%
%TO.P,U1,1,W1-A_1*%
%TO.N,+12V*%
X138600000Y-71030000D03*
%TO.P,U1,2,G-A_2*%
X138600000Y-71990000D03*
%TO.P,U1,3,R-A_3*%
X138600000Y-72950000D03*
%TO.P,U1,4,B-A_4*%
X138600000Y-73910000D03*
%TO.P,U1,5,W2-A_5*%
X138600000Y-74870000D03*
%TO.P,U1,6,W2-C_6*%
%TO.N,Net-(U1-W2-C)*%
X143100000Y-74870000D03*
%TO.P,U1,7,B-C_7*%
%TO.N,Net-(U1-B-C)*%
X143100000Y-73910000D03*
%TO.P,U1,8,R-C_8*%
%TO.N,Net-(U1-R-C)*%
X143100000Y-72950000D03*
%TO.P,U1,9,G-C_9*%
%TO.N,Net-(U1-G-C)*%
X143100000Y-71990000D03*
%TO.P,U1,10,W1-C_10*%
%TO.N,Net-(U1-W1-C)*%
X143100000Y-71030000D03*
%TD*%
%TO.P,U23,1,W1-A_1*%
%TO.N,Net-(U22-W1-C)*%
X173750000Y-71030000D03*
%TO.P,U23,2,G-A_2*%
%TO.N,Net-(U22-G-C)*%
X173750000Y-71990000D03*
%TO.P,U23,3,R-A_3*%
%TO.N,Net-(U22-R-C)*%
X173750000Y-72950000D03*
%TO.P,U23,4,B-A_4*%
%TO.N,Net-(U22-B-C)*%
X173750000Y-73910000D03*
%TO.P,U23,5,W2-A_5*%
%TO.N,Net-(U22-W2-C)*%
X173750000Y-74870000D03*
%TO.P,U23,6,W2-C_6*%
%TO.N,Net-(U23-W2-C)*%
X178250000Y-74870000D03*
%TO.P,U23,7,B-C_7*%
%TO.N,Net-(U23-B-C)*%
X178250000Y-73910000D03*
%TO.P,U23,8,R-C_8*%
%TO.N,Net-(U23-R-C)*%
X178250000Y-72950000D03*
%TO.P,U23,9,G-C_9*%
%TO.N,Net-(U23-G-C)*%
X178250000Y-71990000D03*
%TO.P,U23,10,W1-C_10*%
%TO.N,Net-(U23-W1-C)*%
X178250000Y-71030000D03*
%TD*%
%TO.P,U5,1,W1-A_1*%
%TO.N,+12V*%
X75750000Y-71030000D03*
%TO.P,U5,2,G-A_2*%
X75750000Y-71990000D03*
%TO.P,U5,3,R-A_3*%
X75750000Y-72950000D03*
%TO.P,U5,4,B-A_4*%
X75750000Y-73910000D03*
%TO.P,U5,5,W2-A_5*%
X75750000Y-74870000D03*
%TO.P,U5,6,W2-C_6*%
%TO.N,Net-(U11-W2-A)*%
X80250000Y-74870000D03*
%TO.P,U5,7,B-C_7*%
%TO.N,Net-(U11-B-A)*%
X80250000Y-73910000D03*
%TO.P,U5,8,R-C_8*%
%TO.N,Net-(U11-R-A)*%
X80250000Y-72950000D03*
%TO.P,U5,9,G-C_9*%
%TO.N,Net-(U11-G-A)*%
X80250000Y-71990000D03*
%TO.P,U5,10,W1-C_10*%
%TO.N,Net-(U11-W1-A)*%
X80250000Y-71030000D03*
%TD*%
%TO.P,U7,1,W1-A_1*%
%TO.N,Net-(U1-W1-C)*%
X145750000Y-71030000D03*
%TO.P,U7,2,G-A_2*%
%TO.N,Net-(U1-G-C)*%
X145750000Y-71990000D03*
%TO.P,U7,3,R-A_3*%
%TO.N,Net-(U1-R-C)*%
X145750000Y-72950000D03*
%TO.P,U7,4,B-A_4*%
%TO.N,Net-(U1-B-C)*%
X145750000Y-73910000D03*
%TO.P,U7,5,W2-A_5*%
%TO.N,Net-(U1-W2-C)*%
X145750000Y-74870000D03*
%TO.P,U7,6,W2-C_6*%
%TO.N,Net-(U14-W2-A)*%
X150250000Y-74870000D03*
%TO.P,U7,7,B-C_7*%
%TO.N,Net-(U14-B-A)*%
X150250000Y-73910000D03*
%TO.P,U7,8,R-C_8*%
%TO.N,Net-(U14-R-A)*%
X150250000Y-72950000D03*
%TO.P,U7,9,G-C_9*%
%TO.N,Net-(U14-G-A)*%
X150250000Y-71990000D03*
%TO.P,U7,10,W1-C_10*%
%TO.N,Net-(U14-W1-A)*%
X150250000Y-71030000D03*
%TD*%
%TO.P,U19,1,W1-A_1*%
%TO.N,Net-(U13-W1-C)*%
X68750000Y-71030000D03*
%TO.P,U19,2,G-A_2*%
%TO.N,Net-(U13-G-C)*%
X68750000Y-71990000D03*
%TO.P,U19,3,R-A_3*%
%TO.N,Net-(U13-R-C)*%
X68750000Y-72950000D03*
%TO.P,U19,4,B-A_4*%
%TO.N,Net-(U13-B-C)*%
X68750000Y-73910000D03*
%TO.P,U19,5,W2-A_5*%
%TO.N,Net-(U13-W2-C)*%
X68750000Y-74870000D03*
%TO.P,U19,6,W2-C_6*%
%TO.N,Net-(U19-W2-C)*%
X73250000Y-74870000D03*
%TO.P,U19,7,B-C_7*%
%TO.N,Net-(U19-B-C)*%
X73250000Y-73910000D03*
%TO.P,U19,8,R-C_8*%
%TO.N,Net-(U19-R-C)*%
X73250000Y-72950000D03*
%TO.P,U19,9,G-C_9*%
%TO.N,Net-(U19-G-C)*%
X73250000Y-71990000D03*
%TO.P,U19,10,W1-C_10*%
%TO.N,Net-(U19-W1-C)*%
X73250000Y-71030000D03*
%TD*%
D17*
%TO.P,U28,1,OutR_1*%
%TO.N,Net-(U28-OutR)*%
X191587500Y-79000000D03*
%TO.P,U28,2,OutG_2*%
%TO.N,Net-(U28-OutG)*%
X191587500Y-80000000D03*
%TO.P,U28,3,OutB_3*%
%TO.N,Net-(U28-OutB)*%
X191587500Y-81000000D03*
%TO.P,U28,4,OutW1_4*%
%TO.N,Net-(U28-OutW1)*%
X191587500Y-82000000D03*
%TO.P,U28,5,OutW2_5*%
%TO.N,Net-(U28-OutW2)*%
X191587500Y-83000000D03*
%TO.P,U28,6,Gnd_6*%
%TO.N,GND*%
X196912500Y-83000000D03*
%TO.P,U28,7,Dout_7*%
%TO.N,/LEDGruppe/Bin*%
X196912500Y-82000000D03*
%TO.P,U28,8,Bin_8*%
%TO.N,/Bin*%
X196912500Y-81000000D03*
%TO.P,U28,9,Din_9*%
%TO.N,/Din*%
X196912500Y-80000000D03*
%TO.P,U28,10,Vdd_10*%
%TO.N,Net-(U28-Vdd)*%
X196912500Y-79000000D03*
%TD*%
%TO.P,U24,1,OutR_1*%
%TO.N,Net-(U24-OutR)*%
X171337500Y-79000000D03*
%TO.P,U24,2,OutG_2*%
%TO.N,Net-(U24-OutG)*%
X171337500Y-80000000D03*
%TO.P,U24,3,OutB_3*%
%TO.N,Net-(U24-OutB)*%
X171337500Y-81000000D03*
%TO.P,U24,4,OutW1_4*%
%TO.N,Net-(U24-OutW1)*%
X171337500Y-82000000D03*
%TO.P,U24,5,OutW2_5*%
%TO.N,Net-(U24-OutW2)*%
X171337500Y-83000000D03*
%TO.P,U24,6,Gnd_6*%
%TO.N,GND*%
X176662500Y-83000000D03*
%TO.P,U24,7,Dout_7*%
%TO.N,/LEDGruppe/Din*%
X176662500Y-82000000D03*
%TO.P,U24,8,Bin_8*%
%TO.N,/Din*%
X176662500Y-81000000D03*
%TO.P,U24,9,Din_9*%
%TO.N,/LEDGruppe/Bin*%
X176662500Y-80000000D03*
%TO.P,U24,10,Vdd_10*%
%TO.N,Net-(U24-Vdd)*%
X176662500Y-79000000D03*
%TD*%
%TO.P,U20,1,OutR_1*%
%TO.N,Net-(U20-OutR)*%
X67087500Y-79000000D03*
%TO.P,U20,2,OutG_2*%
%TO.N,Net-(U20-OutG)*%
X67087500Y-80000000D03*
%TO.P,U20,3,OutB_3*%
%TO.N,Net-(U20-OutB)*%
X67087500Y-81000000D03*
%TO.P,U20,4,OutW1_4*%
%TO.N,Net-(U20-OutW1)*%
X67087500Y-82000000D03*
%TO.P,U20,5,OutW2_5*%
%TO.N,Net-(U20-OutW2)*%
X67087500Y-83000000D03*
%TO.P,U20,6,Gnd_6*%
%TO.N,GND*%
X72412500Y-83000000D03*
%TO.P,U20,7,Dout_7*%
%TO.N,/Dout*%
X72412500Y-82000000D03*
%TO.P,U20,8,Bin_8*%
%TO.N,/LEDGruppe2/Dout*%
X72412500Y-81000000D03*
%TO.P,U20,9,Din_9*%
%TO.N,/Bout*%
X72412500Y-80000000D03*
%TO.P,U20,10,Vdd_10*%
%TO.N,Net-(U20-Vdd)*%
X72412500Y-79000000D03*
%TD*%
%TO.P,U16,1,OutR_1*%
%TO.N,Net-(U16-OutR)*%
X87337500Y-79000000D03*
%TO.P,U16,2,OutG_2*%
%TO.N,Net-(U16-OutG)*%
X87337500Y-80000000D03*
%TO.P,U16,3,OutB_3*%
%TO.N,Net-(U16-OutB)*%
X87337500Y-81000000D03*
%TO.P,U16,4,OutW1_4*%
%TO.N,Net-(U16-OutW1)*%
X87337500Y-82000000D03*
%TO.P,U16,5,OutW2_5*%
%TO.N,Net-(U16-OutW2)*%
X87337500Y-83000000D03*
%TO.P,U16,6,Gnd_6*%
%TO.N,GND*%
X92662500Y-83000000D03*
%TO.P,U16,7,Dout_7*%
%TO.N,/Bout*%
X92662500Y-82000000D03*
%TO.P,U16,8,Bin_8*%
%TO.N,/LEDGruppe1/Dout*%
X92662500Y-81000000D03*
%TO.P,U16,9,Din_9*%
%TO.N,/LEDGruppe2/Dout*%
X92662500Y-80000000D03*
%TO.P,U16,10,Vdd_10*%
%TO.N,Net-(U16-Vdd)*%
X92662500Y-79000000D03*
%TD*%
%TO.P,U12,1,OutR_1*%
%TO.N,Net-(U12-OutR)*%
X108337500Y-79000000D03*
%TO.P,U12,2,OutG_2*%
%TO.N,Net-(U12-OutG)*%
X108337500Y-80000000D03*
%TO.P,U12,3,OutB_3*%
%TO.N,Net-(U12-OutB)*%
X108337500Y-81000000D03*
%TO.P,U12,4,OutW1_4*%
%TO.N,Net-(U12-OutW1)*%
X108337500Y-82000000D03*
%TO.P,U12,5,OutW2_5*%
%TO.N,Net-(U12-OutW2)*%
X108337500Y-83000000D03*
%TO.P,U12,6,Gnd_6*%
%TO.N,GND*%
X113662500Y-83000000D03*
%TO.P,U12,7,Dout_7*%
%TO.N,/LEDGruppe2/Dout*%
X113662500Y-82000000D03*
%TO.P,U12,8,Bin_8*%
%TO.N,/LEDGruppe/Dout*%
X113662500Y-81000000D03*
%TO.P,U12,9,Din_9*%
%TO.N,/LEDGruppe1/Dout*%
X113662500Y-80000000D03*
%TO.P,U12,10,Vdd_10*%
%TO.N,Net-(U12-Vdd)*%
X113662500Y-79000000D03*
%TD*%
%TO.P,U8,1,OutR_1*%
%TO.N,Net-(U8-OutR)*%
X129337500Y-79000000D03*
%TO.P,U8,2,OutG_2*%
%TO.N,Net-(U8-OutG)*%
X129337500Y-80000000D03*
%TO.P,U8,3,OutB_3*%
%TO.N,Net-(U8-OutB)*%
X129337500Y-81000000D03*
%TO.P,U8,4,OutW1_4*%
%TO.N,Net-(U8-OutW1)*%
X129337500Y-82000000D03*
%TO.P,U8,5,OutW2_5*%
%TO.N,Net-(U8-OutW2)*%
X129337500Y-83000000D03*
%TO.P,U8,6,Gnd_6*%
%TO.N,GND*%
X134662500Y-83000000D03*
%TO.P,U8,7,Dout_7*%
%TO.N,/LEDGruppe1/Dout*%
X134662500Y-82000000D03*
%TO.P,U8,8,Bin_8*%
%TO.N,/LEDGruppe/Din*%
X134662500Y-81000000D03*
%TO.P,U8,9,Din_9*%
%TO.N,/LEDGruppe/Dout*%
X134662500Y-80000000D03*
%TO.P,U8,10,Vdd_10*%
%TO.N,Net-(U8-Vdd)*%
X134662500Y-79000000D03*
%TD*%
%TO.P,U3,1,OutR_1*%
%TO.N,Net-(U3-OutR)*%
X150337500Y-79000000D03*
%TO.P,U3,2,OutG_2*%
%TO.N,Net-(U3-OutG)*%
X150337500Y-80000000D03*
%TO.P,U3,3,OutB_3*%
%TO.N,Net-(U3-OutB)*%
X150337500Y-81000000D03*
%TO.P,U3,4,OutW1_4*%
%TO.N,Net-(U3-OutW1)*%
X150337500Y-82000000D03*
%TO.P,U3,5,OutW2_5*%
%TO.N,Net-(U3-OutW2)*%
X150337500Y-83000000D03*
%TO.P,U3,6,Gnd_6*%
%TO.N,GND*%
X155662500Y-83000000D03*
%TO.P,U3,7,Dout_7*%
%TO.N,/LEDGruppe/Dout*%
X155662500Y-82000000D03*
%TO.P,U3,8,Bin_8*%
%TO.N,/LEDGruppe/Bin*%
X155662500Y-81000000D03*
%TO.P,U3,9,Din_9*%
%TO.N,/LEDGruppe/Din*%
X155662500Y-80000000D03*
%TO.P,U3,10,Vdd_10*%
%TO.N,Net-(U3-Vdd)*%
X155662500Y-79000000D03*
%TD*%
D10*
%TO.P,F1,*%
%TO.N,*%
X201000000Y-83000000D03*
%TD*%
D18*
%TO.P,J2,1,Pin_1_1*%
%TO.N,GND*%
X52000000Y-79620000D03*
D19*
%TO.P,J2,2,Pin_2_2*%
%TO.N,/Bout*%
X52000000Y-77080000D03*
%TO.P,J2,3,Pin_3_3*%
%TO.N,/Dout*%
X52000000Y-74540000D03*
%TO.P,J2,4,Pin_4_4*%
%TO.N,+12V*%
X52000000Y-72000000D03*
%TD*%
D18*
%TO.P,J1,1,Pin_1_1*%
%TO.N,+12V*%
X202000000Y-72000000D03*
D19*
%TO.P,J1,2,Pin_2_2*%
%TO.N,/Din*%
X202000000Y-74540000D03*
%TO.P,J1,3,Pin_3_3*%
%TO.N,/Bin*%
X202000000Y-77080000D03*
%TO.P,J1,4,Pin_4_4*%
%TO.N,GND*%
X202000000Y-79620000D03*
%TD*%
D20*
%TO.N,Net-(U28-OutW1)*%
X183000000Y-82000000D03*
X192750000Y-82000000D03*
%TO.N,GND*%
X178750000Y-81625000D03*
X134750000Y-84000000D03*
X136750000Y-81750000D03*
X113750000Y-84000000D03*
X115750000Y-82000000D03*
X72500000Y-83750000D03*
X74500000Y-81750000D03*
%TO.N,/Dout*%
X58250000Y-83000000D03*
X70250000Y-82500000D03*
%TO.N,GND*%
X157600000Y-81200000D03*
X94500000Y-81200000D03*
X61900000Y-84000000D03*
X51800000Y-83900000D03*
X77800000Y-77800000D03*
X177000000Y-84000000D03*
X182800000Y-77800000D03*
X56900000Y-77800000D03*
X119800000Y-77800000D03*
X140800000Y-77800000D03*
X162600000Y-77000000D03*
X99750000Y-77000000D03*
%TO.N,Net-(U8-OutW1)*%
X119300000Y-82900000D03*
X128700000Y-82000000D03*
%TO.N,Net-(U12-OutW1)*%
X107029442Y-81970558D03*
X99750000Y-83000000D03*
%TO.N,+12V*%
X119100000Y-72000000D03*
X182200000Y-73900000D03*
X182200000Y-72000000D03*
X98100000Y-72000000D03*
X77100000Y-71850000D03*
X140000000Y-73900000D03*
X119100000Y-73900000D03*
X98100000Y-73900000D03*
X161178873Y-71978873D03*
X161100000Y-73900000D03*
X77000000Y-74200000D03*
X140000000Y-72000000D03*
%TO.N,/Bout*%
X54800000Y-80350000D03*
X69900000Y-80000000D03*
X89300000Y-79900000D03*
%TO.N,/LEDGruppe2/Dout*%
X90800000Y-80000000D03*
X110312959Y-79903157D03*
X71000000Y-80950000D03*
%TO.N,Net-(U16-OutW1)*%
X88750000Y-81970558D03*
X78000000Y-82100000D03*
%TO.N,/LEDGruppe1/Dout*%
X90900000Y-80900000D03*
X111700000Y-80100000D03*
X131500000Y-80100000D03*
%TO.N,/Din*%
X195520829Y-80674981D03*
X175500000Y-80625000D03*
X199974999Y-79141117D03*
%TO.N,/LEDGruppe/Dout*%
X111900000Y-81000000D03*
X152300000Y-80200000D03*
X132800000Y-80200000D03*
%TO.N,Net-(U3-OutW1)*%
X140600000Y-82900000D03*
X149500000Y-82000000D03*
%TO.N,Net-(U24-OutW1)*%
X162892353Y-82777083D03*
X170029442Y-81970558D03*
%TO.N,/LEDGruppe/Din*%
X173658058Y-80058058D03*
X153400000Y-80100000D03*
X132600000Y-81000000D03*
%TO.N,/LEDGruppe/Bin*%
X195150000Y-79966116D03*
X175000000Y-80000000D03*
X154250000Y-80750000D03*
%TO.N,Net-(U20-OutW1)*%
X68375000Y-81875000D03*
X58000000Y-80925000D03*
%TD*%
%TO.N,/LEDGruppe2/Dout*%
D21*
X72362500Y-80950000D02*
X72412500Y-81000000D01*
X71000000Y-80950000D02*
X72362500Y-80950000D01*
%TO.N,Net-(U24-OutW1)*%
X171850000Y-81900000D02*
X171900000Y-81950000D01*
X170885000Y-81900000D02*
X171850000Y-81900000D01*
X170814442Y-81970558D02*
X170885000Y-81900000D01*
X170029442Y-81970558D02*
X170814442Y-81970558D01*
%TO.N,Net-(U16-OutW1)*%
X88729442Y-81950000D02*
X87900000Y-81950000D01*
X88750000Y-81970558D02*
X88729442Y-81950000D01*
%TO.N,Net-(U12-OutW2)*%
X106962500Y-83000000D02*
X108810000Y-83000000D01*
X108810000Y-83000000D02*
X108900000Y-82910000D01*
X106000000Y-81825000D02*
X106000000Y-82037500D01*
X106000000Y-82037500D02*
X106962500Y-83000000D01*
%TO.N,Net-(U12-OutW1)*%
X108850000Y-82000000D02*
X108900000Y-81950000D01*
X107685000Y-82000000D02*
X108850000Y-82000000D01*
X107029442Y-81970558D02*
X107655558Y-81970558D01*
X107655558Y-81970558D02*
X107685000Y-82000000D01*
%TO.N,+12V*%
D22*
X200575000Y-73425000D02*
X202000000Y-72000000D01*
X200575000Y-75307992D02*
X200575000Y-73425000D01*
X199475000Y-77350000D02*
X199475000Y-76407992D01*
X199475000Y-76407992D02*
X200575000Y-75307992D01*
%TO.N,/Din*%
D21*
X202000000Y-75530908D02*
X202000000Y-74540000D01*
X201625908Y-75905000D02*
X202000000Y-75530908D01*
X200825000Y-76593299D02*
X201513299Y-75905000D01*
X200600000Y-76930908D02*
X200825000Y-76705908D01*
X200825000Y-76705908D02*
X200825000Y-76593299D01*
X200600000Y-78400000D02*
X200600000Y-76930908D01*
X199923923Y-79076077D02*
X200600000Y-78400000D01*
X199909959Y-79076077D02*
X199923923Y-79076077D01*
X201513299Y-75905000D02*
X201625908Y-75905000D01*
X199974999Y-79141117D02*
X199909959Y-79076077D01*
%TO.N,Net-(U23-W1-C)*%
X162225000Y-78575000D02*
X161800000Y-78575000D01*
X165241127Y-75558873D02*
X162225000Y-78575000D01*
X174825000Y-75500000D02*
X174518311Y-75500000D01*
X175120562Y-75204438D02*
X174825000Y-75500000D01*
X175159166Y-75204438D02*
X175120562Y-75204438D01*
X175250000Y-75113604D02*
X175159166Y-75204438D01*
X175250000Y-73268873D02*
X175250000Y-75113604D01*
X177500000Y-71018873D02*
X175250000Y-73268873D01*
X178100000Y-71018873D02*
X177500000Y-71018873D01*
X174518311Y-75500000D02*
X174459438Y-75558873D01*
X174459438Y-75558873D02*
X165241127Y-75558873D01*
%TO.N,Net-(U23-G-C)*%
X174991127Y-76008873D02*
X166091127Y-76008873D01*
X175750000Y-75250000D02*
X174991127Y-76008873D01*
X166091127Y-76008873D02*
X163400000Y-78700000D01*
X175750000Y-73405269D02*
X175750000Y-75250000D01*
X177176396Y-71978873D02*
X175750000Y-73405269D01*
X163400000Y-78700000D02*
X163400000Y-80175000D01*
X178100000Y-71978873D02*
X177176396Y-71978873D01*
%TO.N,Net-(U23-R-C)*%
X165000000Y-78400000D02*
X165000000Y-80175000D01*
X175550000Y-76129204D02*
X175550000Y-76177208D01*
X176250000Y-75429204D02*
X175550000Y-76129204D01*
X176250000Y-73950000D02*
X176250000Y-75429204D01*
X177261127Y-72938873D02*
X176250000Y-73950000D01*
X175550000Y-76177208D02*
X175268335Y-76458873D01*
X175268335Y-76458873D02*
X166941127Y-76458873D01*
X166941127Y-76458873D02*
X165000000Y-78400000D01*
X178100000Y-72938873D02*
X177261127Y-72938873D01*
%TO.N,Net-(U23-B-C)*%
X167000000Y-78300000D02*
X167000000Y-80175000D01*
X168300000Y-77000000D02*
X167000000Y-78300000D01*
X175363604Y-77000000D02*
X168300000Y-77000000D01*
X176000000Y-76363604D02*
X175363604Y-77000000D01*
X176000000Y-76315600D02*
X176000000Y-76363604D01*
X176750000Y-75565600D02*
X176000000Y-76315600D01*
X176750000Y-74450000D02*
X176750000Y-75565600D01*
X177301127Y-73898873D02*
X176750000Y-74450000D01*
X178100000Y-73898873D02*
X177301127Y-73898873D01*
%TO.N,Net-(U23-W2-C)*%
X169000000Y-78700000D02*
X169000000Y-80175000D01*
X176450000Y-76550000D02*
X175300000Y-77700000D01*
X176450000Y-76501996D02*
X176450000Y-76550000D01*
X175300000Y-77700000D02*
X170000000Y-77700000D01*
X176751996Y-76200000D02*
X176450000Y-76501996D01*
X178100000Y-74900000D02*
X176800000Y-76200000D01*
X176800000Y-76200000D02*
X176751996Y-76200000D01*
X178100000Y-74858873D02*
X178100000Y-74900000D01*
X170000000Y-77700000D02*
X169000000Y-78700000D01*
%TO.N,Net-(U14-W1-C)*%
X144616127Y-75558873D02*
X140000000Y-80175000D01*
X154200000Y-75163604D02*
X153804731Y-75558873D01*
X153804731Y-75558873D02*
X144616127Y-75558873D01*
X154200000Y-72600000D02*
X154200000Y-75163604D01*
X155781127Y-71018873D02*
X154200000Y-72600000D01*
X157100000Y-71018873D02*
X155781127Y-71018873D01*
%TO.N,Net-(U14-G-C)*%
X153991127Y-76008873D02*
X145291127Y-76008873D01*
X154700000Y-73200000D02*
X154700000Y-75300000D01*
X154700000Y-75300000D02*
X153991127Y-76008873D01*
X155921127Y-71978873D02*
X154700000Y-73200000D01*
X142000000Y-79300000D02*
X142000000Y-80175000D01*
X157100000Y-71978873D02*
X155921127Y-71978873D01*
X145291127Y-76008873D02*
X142000000Y-79300000D01*
%TO.N,Net-(U14-R-C)*%
X155150000Y-75600000D02*
X154250000Y-76500000D01*
X144000000Y-79200000D02*
X144000000Y-80175000D01*
X155150000Y-74150000D02*
X155150000Y-75600000D01*
X146700000Y-76500000D02*
X144000000Y-79200000D01*
X156361127Y-72938873D02*
X155150000Y-74150000D01*
X154250000Y-76500000D02*
X146700000Y-76500000D01*
X157100000Y-72938873D02*
X156361127Y-72938873D01*
%TO.N,Net-(U14-B-C)*%
X154500000Y-77000000D02*
X148400000Y-77000000D01*
X146000000Y-79400000D02*
X146000000Y-80175000D01*
X156201127Y-73898873D02*
X155600000Y-74500000D01*
X155600000Y-74500000D02*
X155600000Y-75900000D01*
X157100000Y-73898873D02*
X156201127Y-73898873D01*
X155600000Y-75900000D02*
X154500000Y-77000000D01*
X148400000Y-77000000D02*
X146000000Y-79400000D01*
%TO.N,Net-(U14-W2-C)*%
X148000000Y-79100000D02*
X148000000Y-80175000D01*
X149600000Y-77500000D02*
X148000000Y-79100000D01*
X155700000Y-76550000D02*
X154750000Y-77500000D01*
X156001996Y-76200000D02*
X155700000Y-76501996D01*
X155700000Y-76501996D02*
X155700000Y-76550000D01*
X156050000Y-76200000D02*
X156001996Y-76200000D01*
X154750000Y-77500000D02*
X149600000Y-77500000D01*
X157100000Y-75150000D02*
X156050000Y-76200000D01*
X157100000Y-74858873D02*
X157100000Y-75150000D01*
%TO.N,Net-(U3-Vdd)*%
D22*
X156425000Y-77425000D02*
X156750000Y-77750000D01*
X156425000Y-77000000D02*
X156425000Y-77425000D01*
%TO.N,+12V*%
X159675000Y-77000000D02*
X159900000Y-76775000D01*
X158075000Y-77000000D02*
X159675000Y-77000000D01*
%TO.N,Net-(U19-W1-C)*%
D21*
X70196711Y-75053289D02*
X70287523Y-75053289D01*
X69150000Y-76100000D02*
X70196711Y-75053289D01*
X61075000Y-76100000D02*
X57000000Y-80175000D01*
X69150000Y-76100000D02*
X61075000Y-76100000D01*
X70300000Y-73263604D02*
X70300000Y-74189685D01*
X70300000Y-74189685D02*
X70287523Y-74202162D01*
X70500000Y-73063604D02*
X70300000Y-73263604D01*
X70500000Y-73018873D02*
X70500000Y-73063604D01*
X72500000Y-71018873D02*
X70500000Y-73018873D01*
X70287523Y-74202162D02*
X70287523Y-75053289D01*
X73100000Y-71018873D02*
X72500000Y-71018873D01*
%TO.N,Net-(U19-G-C)*%
X59000000Y-79200000D02*
X59000000Y-80175000D01*
X61400000Y-76800000D02*
X59000000Y-79200000D01*
X61400000Y-76700000D02*
X61400000Y-76800000D01*
X70737523Y-75239685D02*
X69277208Y-76700000D01*
X70737523Y-74388558D02*
X70737523Y-75239685D01*
X69277208Y-76700000D02*
X61400000Y-76700000D01*
X72221127Y-71978873D02*
X70750000Y-73450000D01*
X70750000Y-73450000D02*
X70750000Y-74376081D01*
X70750000Y-74376081D02*
X70737523Y-74388558D01*
X73100000Y-71978873D02*
X72221127Y-71978873D01*
%TO.N,Net-(U19-R-C)*%
X61000000Y-79100000D02*
X61000000Y-80175000D01*
X69463604Y-77150000D02*
X62950000Y-77150000D01*
X71187523Y-75426081D02*
X69463604Y-77150000D01*
X71187523Y-74574954D02*
X71187523Y-75426081D01*
X62950000Y-77150000D02*
X61000000Y-79100000D01*
X71250000Y-73650000D02*
X71250000Y-74512477D01*
X71961127Y-72938873D02*
X71250000Y-73650000D01*
X71250000Y-74512477D02*
X71187523Y-74574954D01*
X73100000Y-72938873D02*
X71961127Y-72938873D01*
%TO.N,Net-(U19-B-C)*%
X63000000Y-78700000D02*
X63000000Y-80175000D01*
X69650000Y-77600000D02*
X64100000Y-77600000D01*
X64100000Y-77600000D02*
X63000000Y-78700000D01*
X71637523Y-75612477D02*
X69650000Y-77600000D01*
X71637523Y-74761350D02*
X71637523Y-75612477D01*
X73100000Y-73898873D02*
X72500000Y-73898873D01*
X72500000Y-73898873D02*
X71637523Y-74761350D01*
%TO.N,Net-(U19-W2-C)*%
X65000000Y-79250000D02*
X65000000Y-80175000D01*
X66200000Y-78050000D02*
X65000000Y-79250000D01*
X69950000Y-78050000D02*
X66200000Y-78050000D01*
X73100000Y-74900000D02*
X69950000Y-78050000D01*
X73100000Y-74858873D02*
X73100000Y-74900000D01*
%TO.N,Net-(U20-Vdd)*%
D22*
X72175000Y-78762500D02*
X72412500Y-79000000D01*
X72425000Y-77000000D02*
X72175000Y-77250000D01*
X72175000Y-77250000D02*
X72175000Y-78762500D01*
%TO.N,+12V*%
X74075000Y-77000000D02*
X76225000Y-77000000D01*
%TO.N,Net-(U18-W1-C)*%
D21*
X90640812Y-75700000D02*
X81400000Y-75700000D01*
X93500000Y-71018873D02*
X91000000Y-73518873D01*
X91000000Y-73518873D02*
X91000000Y-75340812D01*
X91000000Y-75340812D02*
X90640812Y-75700000D01*
X94100000Y-71018873D02*
X93500000Y-71018873D01*
X81400000Y-75700000D02*
X77000000Y-80100000D01*
X77000000Y-80100000D02*
X77000000Y-80175000D01*
%TO.N,Net-(U18-G-C)*%
X93176396Y-71978873D02*
X94100000Y-71978873D01*
X91877635Y-73277634D02*
X93176396Y-71978873D01*
X90577208Y-76400000D02*
X91877635Y-75099573D01*
X82200000Y-76400000D02*
X90577208Y-76400000D01*
X79000000Y-79600000D02*
X82200000Y-76400000D01*
X91877635Y-75099573D02*
X91877635Y-73277634D01*
X79000000Y-80175000D02*
X79000000Y-79600000D01*
%TO.N,Net-(U18-R-C)*%
X84325000Y-76850000D02*
X81000000Y-80175000D01*
X90763604Y-76850000D02*
X84325000Y-76850000D01*
X92327635Y-74111238D02*
X92327635Y-75285969D01*
X93500000Y-72938873D02*
X92327635Y-74111238D01*
X92327635Y-75285969D02*
X90763604Y-76850000D01*
X94100000Y-72938873D02*
X93500000Y-72938873D01*
%TO.N,Net-(U18-B-C)*%
X93100000Y-75150000D02*
X93100000Y-74600000D01*
X93801127Y-73898873D02*
X94100000Y-73898873D01*
X90950000Y-77300000D02*
X93100000Y-75150000D01*
X85875000Y-77300000D02*
X90950000Y-77300000D01*
X83000000Y-80175000D02*
X85875000Y-77300000D01*
X93100000Y-74600000D02*
X93801127Y-73898873D01*
%TO.N,Net-(U18-W2-C)*%
X94100000Y-74875000D02*
X94100000Y-74858873D01*
X91225000Y-77750000D02*
X94100000Y-74875000D01*
X85000000Y-79250000D02*
X86500000Y-77750000D01*
X86500000Y-77750000D02*
X91225000Y-77750000D01*
X85000000Y-80175000D02*
X85000000Y-79250000D01*
%TO.N,Net-(U16-Vdd)*%
D22*
X93425000Y-77450000D02*
X93887500Y-77912500D01*
%TO.N,+12V*%
X95075000Y-77000000D02*
X97225000Y-77000000D01*
%TO.N,Net-(U16-Vdd)*%
X93425000Y-77000000D02*
X93425000Y-77450000D01*
%TO.N,Net-(U17-W1-C)*%
D21*
X111668335Y-75558873D02*
X102616127Y-75558873D01*
X112500000Y-74727208D02*
X111668335Y-75558873D01*
X112500000Y-73018873D02*
X112500000Y-74727208D01*
X102616127Y-75558873D02*
X99200000Y-78975000D01*
X114500000Y-71018873D02*
X112500000Y-73018873D01*
X99200000Y-78975000D02*
X98500000Y-78975000D01*
X115100000Y-71018873D02*
X114500000Y-71018873D01*
%TO.N,Net-(U17-G-C)*%
X103791127Y-76008873D02*
X100500000Y-79300000D01*
X111854731Y-76008873D02*
X103791127Y-76008873D01*
X113000000Y-74863604D02*
X111854731Y-76008873D01*
X113000000Y-73155269D02*
X113000000Y-74863604D01*
X100500000Y-79300000D02*
X100500000Y-80175000D01*
X115100000Y-71978873D02*
X114176396Y-71978873D01*
X114176396Y-71978873D02*
X113000000Y-73155269D01*
%TO.N,Net-(U17-R-C)*%
X102000000Y-79200000D02*
X102000000Y-80175000D01*
X112000000Y-76500000D02*
X104700000Y-76500000D01*
X113500000Y-75000000D02*
X112000000Y-76500000D01*
X113500000Y-73800000D02*
X113500000Y-75000000D01*
X114361127Y-72938873D02*
X113500000Y-73800000D01*
X115100000Y-72938873D02*
X114361127Y-72938873D01*
X104700000Y-76500000D02*
X102000000Y-79200000D01*
%TO.N,Net-(U17-B-C)*%
X104000000Y-78900000D02*
X104000000Y-80175000D01*
X112195552Y-76950000D02*
X105950000Y-76950000D01*
X105950000Y-76950000D02*
X104000000Y-78900000D01*
X114000000Y-74398873D02*
X114000000Y-75145552D01*
X114500000Y-73898873D02*
X114000000Y-74398873D01*
X114000000Y-75145552D02*
X112195552Y-76950000D01*
X115100000Y-73898873D02*
X114500000Y-73898873D01*
%TO.N,Net-(U17-W2-C)*%
X106000000Y-79087500D02*
X106000000Y-80175000D01*
X107487500Y-77600000D02*
X106000000Y-79087500D01*
X115100000Y-74858873D02*
X114923075Y-74858873D01*
X114923075Y-74858873D02*
X112181948Y-77600000D01*
X112181948Y-77600000D02*
X107487500Y-77600000D01*
%TO.N,Net-(U15-W1-C)*%
X119000000Y-79900000D02*
X119000000Y-80175000D01*
X132684156Y-75700000D02*
X123200000Y-75700000D01*
X123200000Y-75700000D02*
X119000000Y-79900000D01*
X133100000Y-72200000D02*
X133100000Y-75284156D01*
X133100000Y-75284156D02*
X132684156Y-75700000D01*
X134281127Y-71018873D02*
X133100000Y-72200000D01*
X136100000Y-71018873D02*
X134281127Y-71018873D01*
%TO.N,Net-(U15-G-C)*%
X133550000Y-75540812D02*
X132740812Y-76350000D01*
X121000000Y-79600000D02*
X121000000Y-80175000D01*
X133550000Y-73150000D02*
X133550000Y-75540812D01*
X132740812Y-76350000D02*
X124250000Y-76350000D01*
X134721127Y-71978873D02*
X133550000Y-73150000D01*
X124250000Y-76350000D02*
X121000000Y-79600000D01*
X136100000Y-71978873D02*
X134721127Y-71978873D01*
%TO.N,Net-(U15-R-C)*%
X126175000Y-77000000D02*
X123000000Y-80175000D01*
X132727208Y-77000000D02*
X126175000Y-77000000D01*
X134200000Y-73800000D02*
X134200000Y-75527208D01*
X135061127Y-72938873D02*
X134200000Y-73800000D01*
X136100000Y-72938873D02*
X135061127Y-72938873D01*
X134200000Y-75527208D02*
X132727208Y-77000000D01*
%TO.N,Net-(U15-B-C)*%
X126800000Y-77700000D02*
X125000000Y-79500000D01*
X125000000Y-79500000D02*
X125000000Y-80175000D01*
X132763604Y-77600000D02*
X126800000Y-77600000D01*
X134650000Y-75713604D02*
X132763604Y-77600000D01*
X126800000Y-77600000D02*
X126800000Y-77700000D01*
X135500000Y-73898873D02*
X134650000Y-74748873D01*
X134650000Y-74748873D02*
X134650000Y-75713604D01*
X136100000Y-73898873D02*
X135500000Y-73898873D01*
%TO.N,Net-(U15-W2-C)*%
X136100000Y-74900000D02*
X132900000Y-78100000D01*
X127000000Y-79500000D02*
X127000000Y-80175000D01*
X136100000Y-74858873D02*
X136100000Y-74900000D01*
X132900000Y-78100000D02*
X128400000Y-78100000D01*
X128400000Y-78100000D02*
X127000000Y-79500000D01*
%TO.N,Net-(U8-Vdd)*%
D22*
X135175000Y-77250000D02*
X135175000Y-78487500D01*
%TO.N,+12V*%
X138100000Y-77000000D02*
X138750000Y-76350000D01*
X137075000Y-77000000D02*
X138100000Y-77000000D01*
X137075000Y-77000000D02*
X139225000Y-77000000D01*
%TO.N,Net-(U8-Vdd)*%
X135425000Y-77000000D02*
X135175000Y-77250000D01*
%TO.N,Net-(U8-OutR)*%
D21*
X128430000Y-79070000D02*
X129900000Y-79070000D01*
X127800000Y-79700000D02*
X128430000Y-79070000D01*
X127498004Y-80900000D02*
X127800000Y-80598004D01*
X126750000Y-81000000D02*
X126850000Y-80900000D01*
X126850000Y-80900000D02*
X127498004Y-80900000D01*
X126400000Y-81100000D02*
X126500000Y-81000000D01*
X123725000Y-81100000D02*
X126400000Y-81100000D01*
X127800000Y-80598004D02*
X127800000Y-79700000D01*
X126500000Y-81000000D02*
X126750000Y-81000000D01*
X123000000Y-81825000D02*
X123725000Y-81100000D01*
%TO.N,Net-(U24-OutR)*%
X170550001Y-79000000D02*
X171337500Y-79000000D01*
X169398004Y-81000000D02*
X170000000Y-80398004D01*
X170000000Y-80398004D02*
X170000000Y-79550001D01*
X165000000Y-81825000D02*
X165825000Y-81000000D01*
X165825000Y-81000000D02*
X169398004Y-81000000D01*
X170000000Y-79550001D02*
X170550001Y-79000000D01*
%TO.N,/Bin*%
X202000000Y-78000000D02*
X202000000Y-77080000D01*
X201555000Y-78445000D02*
X202000000Y-78000000D01*
X201513299Y-78445000D02*
X201555000Y-78445000D01*
X200825000Y-79175000D02*
X200825000Y-79133299D01*
X200000000Y-80000000D02*
X200825000Y-79175000D01*
X198200000Y-80315948D02*
X198515948Y-80000000D01*
X198200000Y-80550000D02*
X198200000Y-80315948D01*
X200825000Y-79133299D02*
X201513299Y-78445000D01*
X197760000Y-80990000D02*
X198200000Y-80550000D01*
X197100000Y-80990000D02*
X197760000Y-80990000D01*
X198515948Y-80000000D02*
X200000000Y-80000000D01*
%TO.N,Net-(U28-OutG)*%
X190800001Y-80000000D02*
X191587500Y-80000000D01*
X189700001Y-81100000D02*
X190800001Y-80000000D01*
X184725000Y-81100000D02*
X189700001Y-81100000D01*
X184000000Y-81825000D02*
X184725000Y-81100000D01*
%TO.N,Net-(U28-OutR)*%
X194000000Y-82687304D02*
X194000000Y-80750000D01*
X192612304Y-84075000D02*
X194000000Y-82687304D01*
X188000000Y-84075000D02*
X192612304Y-84075000D01*
X185750000Y-81825000D02*
X188000000Y-84075000D01*
X194000000Y-80750000D02*
X192250000Y-79000000D01*
X192250000Y-79000000D02*
X191587500Y-79000000D01*
%TO.N,Net-(U28-OutB)*%
X193000000Y-81000000D02*
X191587500Y-81000000D01*
X193250000Y-81250000D02*
X193000000Y-81000000D01*
X193250000Y-81616116D02*
X193250000Y-81250000D01*
X193250000Y-82383884D02*
X193375000Y-82258884D01*
X193375000Y-82258884D02*
X193375000Y-81741116D01*
X192700000Y-83300000D02*
X193250000Y-82750000D01*
X193375000Y-81741116D02*
X193250000Y-81616116D01*
X192700000Y-83350908D02*
X192700000Y-83300000D01*
X192425908Y-83625000D02*
X192700000Y-83350908D01*
X193250000Y-82750000D02*
X193250000Y-82383884D01*
X187500000Y-81825000D02*
X189300000Y-83625000D01*
X189300000Y-83625000D02*
X192425908Y-83625000D01*
%TO.N,Net-(U28-OutW1)*%
X183000000Y-82000000D02*
X182175000Y-82000000D01*
X191587500Y-82000000D02*
X192750000Y-82000000D01*
X182175000Y-82000000D02*
X182000000Y-81825000D01*
%TO.N,Net-(U28-OutW2)*%
X190425000Y-83000000D02*
X189250000Y-81825000D01*
X191587500Y-83000000D02*
X190425000Y-83000000D01*
%TO.N,Net-(U28-Vdd)*%
D22*
X197825000Y-78087500D02*
X197825000Y-78050000D01*
X196912500Y-79000000D02*
X197825000Y-78087500D01*
X197825000Y-78050000D02*
X199000000Y-79225000D01*
X197825000Y-77350000D02*
X197825000Y-78050000D01*
%TO.N,/LEDGruppe/Bin*%
D21*
X195750000Y-82000000D02*
X196912500Y-82000000D01*
X194895829Y-81145829D02*
X195750000Y-82000000D01*
X194895829Y-80220287D02*
X194895829Y-81145829D01*
X195150000Y-79966116D02*
X194895829Y-80220287D01*
%TO.N,/Din*%
X196030000Y-80030000D02*
X197100000Y-80030000D01*
X195588610Y-80471390D02*
X196030000Y-80030000D01*
X195588610Y-80607200D02*
X195588610Y-80471390D01*
X195520829Y-80674981D02*
X195588610Y-80607200D01*
%TO.N,Net-(U27-W2-C)*%
X190550000Y-77450000D02*
X190000000Y-78000000D01*
X196254739Y-77450000D02*
X190550000Y-77450000D01*
X190000000Y-79425000D02*
X189250000Y-80175000D01*
X198845866Y-74858873D02*
X196254739Y-77450000D01*
X190000000Y-78000000D02*
X190000000Y-79425000D01*
X199100000Y-74858873D02*
X198845866Y-74858873D01*
%TO.N,Net-(U27-B-C)*%
X188000000Y-79675000D02*
X187500000Y-80175000D01*
X188000000Y-79000000D02*
X188000000Y-79675000D01*
X196068343Y-77000000D02*
X190000000Y-77000000D01*
X198150000Y-74918343D02*
X196068343Y-77000000D01*
X198150000Y-74248873D02*
X198150000Y-74918343D01*
X190000000Y-77000000D02*
X188000000Y-79000000D01*
X198500000Y-73898873D02*
X198150000Y-74248873D01*
X199100000Y-73898873D02*
X198500000Y-73898873D01*
%TO.N,Net-(U27-R-C)*%
X186000000Y-79925000D02*
X185750000Y-80175000D01*
X186000000Y-79100000D02*
X186000000Y-79925000D01*
X197700000Y-74731947D02*
X195973074Y-76458873D01*
X197700000Y-73800000D02*
X197700000Y-74731947D01*
X198561127Y-72938873D02*
X197700000Y-73800000D01*
X188641127Y-76458873D02*
X186000000Y-79100000D01*
X199100000Y-72938873D02*
X198561127Y-72938873D01*
X195973074Y-76458873D02*
X188641127Y-76458873D01*
%TO.N,GND*%
D22*
X176662500Y-83662500D02*
X177000000Y-84000000D01*
X176662500Y-83000000D02*
X176662500Y-83662500D01*
%TO.N,/LEDGruppe/Bin*%
D21*
X176070000Y-80000000D02*
X176100000Y-80030000D01*
X175000000Y-80000000D02*
X176070000Y-80000000D01*
%TO.N,Net-(U24-OutB)*%
X172523042Y-80990000D02*
X171900000Y-80990000D01*
X169100000Y-83925000D02*
X172775000Y-83925000D01*
X172775000Y-83925000D02*
X173100000Y-83600000D01*
X167000000Y-81825000D02*
X169100000Y-83925000D01*
X173100000Y-83600000D02*
X173100000Y-81566958D01*
X173100000Y-81566958D02*
X172523042Y-80990000D01*
%TO.N,Net-(U24-OutG)*%
X172961396Y-84375000D02*
X165362500Y-84375000D01*
X173550000Y-81380562D02*
X173550000Y-83786396D01*
X165362500Y-84375000D02*
X163400000Y-82412500D01*
X172199438Y-80030000D02*
X173550000Y-81380562D01*
X163400000Y-82412500D02*
X163400000Y-81825000D01*
X171900000Y-80030000D02*
X172199438Y-80030000D01*
X173550000Y-83786396D02*
X172961396Y-84375000D01*
%TO.N,/LEDGruppe/Bin*%
X154490000Y-80990000D02*
X155100000Y-80990000D01*
X154250000Y-80750000D02*
X154490000Y-80990000D01*
%TO.N,/Din*%
X175865000Y-80990000D02*
X176100000Y-80990000D01*
X175500000Y-80625000D02*
X175865000Y-80990000D01*
%TO.N,GND*%
D22*
X178750000Y-80775000D02*
X178750000Y-81625000D01*
%TO.N,Net-(U24-Vdd)*%
X178225000Y-79225000D02*
X178750000Y-79225000D01*
X177487500Y-78487500D02*
X178225000Y-79225000D01*
X177175000Y-78487500D02*
X177487500Y-78487500D01*
X177175000Y-78487500D02*
X176662500Y-79000000D01*
X177175000Y-77000000D02*
X177175000Y-78487500D01*
%TO.N,+12V*%
X178825000Y-77000000D02*
X181225000Y-77000000D01*
%TO.N,Net-(U3-OutR)*%
D21*
X149000000Y-80398004D02*
X149000000Y-79500000D01*
X148398004Y-81000000D02*
X149000000Y-80398004D01*
X147500000Y-81000000D02*
X148398004Y-81000000D01*
X149000000Y-79500000D02*
X149430000Y-79070000D01*
X149430000Y-79070000D02*
X150900000Y-79070000D01*
X147400000Y-81100000D02*
X147500000Y-81000000D01*
X144725000Y-81100000D02*
X147400000Y-81100000D01*
X144000000Y-81825000D02*
X144725000Y-81100000D01*
%TO.N,Net-(U3-OutB)*%
X151199438Y-80990000D02*
X150900000Y-80990000D01*
X151900000Y-81690562D02*
X151199438Y-80990000D01*
X151900000Y-83400000D02*
X151900000Y-81690562D01*
X151550000Y-83750000D02*
X151900000Y-83400000D01*
X147925000Y-83750000D02*
X151550000Y-83750000D01*
X146000000Y-81825000D02*
X147925000Y-83750000D01*
%TO.N,Net-(U3-OutG)*%
X152900000Y-81730562D02*
X151199438Y-80030000D01*
X152900000Y-83036396D02*
X152900000Y-81730562D01*
X151561396Y-84375000D02*
X152900000Y-83036396D01*
X144550000Y-84375000D02*
X151561396Y-84375000D01*
X151199438Y-80030000D02*
X150900000Y-80030000D01*
X142000000Y-81825000D02*
X144550000Y-84375000D01*
%TO.N,Net-(U8-Vdd)*%
D22*
X136012500Y-78487500D02*
X136750000Y-79225000D01*
X135175000Y-78487500D02*
X136012500Y-78487500D01*
X135175000Y-78487500D02*
X134662500Y-79000000D01*
%TO.N,Net-(U8-OutB)*%
D21*
X130199438Y-80990000D02*
X129900000Y-80990000D01*
X130300000Y-83800000D02*
X130825000Y-83275000D01*
X130825000Y-81615562D02*
X130199438Y-80990000D01*
X126975000Y-83800000D02*
X130300000Y-83800000D01*
X130825000Y-83275000D02*
X130825000Y-81615562D01*
X125000000Y-81825000D02*
X126975000Y-83800000D01*
%TO.N,Net-(U8-OutG)*%
X130199438Y-80030000D02*
X129900000Y-80030000D01*
X131275000Y-81105562D02*
X130199438Y-80030000D01*
X131275000Y-83461396D02*
X131275000Y-81105562D01*
X130486396Y-84250000D02*
X131275000Y-83461396D01*
X123425000Y-84250000D02*
X130486396Y-84250000D01*
X121000000Y-81825000D02*
X123425000Y-84250000D01*
%TO.N,Net-(U12-OutB)*%
X109500000Y-80990000D02*
X108900000Y-80990000D01*
X109319438Y-83750000D02*
X109825000Y-83244438D01*
X105925000Y-83750000D02*
X109319438Y-83750000D01*
X109825000Y-83244438D02*
X109825000Y-81315000D01*
X104000000Y-81825000D02*
X105925000Y-83750000D01*
X109825000Y-81315000D02*
X109500000Y-80990000D01*
%TO.N,GND*%
D22*
X134662500Y-83912500D02*
X134750000Y-84000000D01*
X134662500Y-83000000D02*
X134662500Y-83912500D01*
X136750000Y-80775000D02*
X136750000Y-81750000D01*
X113750000Y-84000000D02*
X113662500Y-83912500D01*
X113662500Y-83912500D02*
X113662500Y-83000000D01*
X115750000Y-80775000D02*
X115750000Y-82000000D01*
%TO.N,Net-(U12-Vdd)*%
X114175000Y-77000000D02*
X114175000Y-78675000D01*
X115525000Y-79000000D02*
X114500000Y-79000000D01*
X114175000Y-78675000D02*
X114500000Y-79000000D01*
X114500000Y-79000000D02*
X113662500Y-79000000D01*
X115750000Y-79225000D02*
X115525000Y-79000000D01*
%TO.N,+12V*%
X115825000Y-77000000D02*
X118225000Y-77000000D01*
%TO.N,Net-(U12-OutR)*%
D21*
X107430000Y-79070000D02*
X108900000Y-79070000D01*
X107000000Y-80398004D02*
X107000000Y-79500000D01*
X107000000Y-79500000D02*
X107430000Y-79070000D01*
X106498004Y-80900000D02*
X107000000Y-80398004D01*
X105600000Y-80900000D02*
X106498004Y-80900000D01*
X105400000Y-81100000D02*
X105600000Y-80900000D01*
X102725000Y-81100000D02*
X105400000Y-81100000D01*
X102000000Y-81825000D02*
X102725000Y-81100000D01*
%TO.N,Net-(U12-OutG)*%
X109500000Y-80030000D02*
X108900000Y-80030000D01*
X109330834Y-84375000D02*
X110275000Y-83430834D01*
X110275000Y-80805000D02*
X109500000Y-80030000D01*
X100500000Y-81825000D02*
X100500000Y-82325000D01*
X100500000Y-82325000D02*
X102550000Y-84375000D01*
X102550000Y-84375000D02*
X109330834Y-84375000D01*
X110275000Y-83430834D02*
X110275000Y-80805000D01*
%TO.N,Net-(U16-Vdd)*%
D22*
X93587500Y-77912500D02*
X93887500Y-77912500D01*
X92662500Y-78837500D02*
X93587500Y-77912500D01*
X92662500Y-79000000D02*
X92662500Y-78837500D01*
%TO.N,Net-(U16-OutW2)*%
D21*
X86175000Y-83000000D02*
X85000000Y-81825000D01*
X87427500Y-82910000D02*
X87337500Y-83000000D01*
X87900000Y-82910000D02*
X87427500Y-82910000D01*
X87337500Y-83000000D02*
X86175000Y-83000000D01*
%TO.N,Net-(U16-OutB)*%
X88650000Y-83750000D02*
X89600000Y-82800000D01*
X89600000Y-82800000D02*
X89600000Y-81900000D01*
X84925000Y-83750000D02*
X88650000Y-83750000D01*
X89600000Y-81900000D02*
X88690000Y-80990000D01*
X83000000Y-81825000D02*
X84925000Y-83750000D01*
X88690000Y-80990000D02*
X87900000Y-80990000D01*
%TO.N,Net-(U16-OutG)*%
X90300000Y-82736396D02*
X90300000Y-81830000D01*
X88500000Y-80030000D02*
X87900000Y-80030000D01*
X88661396Y-84375000D02*
X90300000Y-82736396D01*
X90300000Y-81830000D02*
X88500000Y-80030000D01*
X81550000Y-84375000D02*
X88661396Y-84375000D01*
X79000000Y-81825000D02*
X81550000Y-84375000D01*
%TO.N,Net-(U16-OutR)*%
X85800000Y-79751996D02*
X85750000Y-79701996D01*
X85800000Y-80598004D02*
X85800000Y-79751996D01*
X85498004Y-80900000D02*
X85800000Y-80598004D01*
X86250000Y-79000000D02*
X87337500Y-79000000D01*
X81925000Y-80900000D02*
X85498004Y-80900000D01*
X85750000Y-79500000D02*
X86250000Y-79000000D01*
X81000000Y-81825000D02*
X81925000Y-80900000D01*
X85750000Y-79701996D02*
X85750000Y-79500000D01*
%TO.N,Net-(U20-Vdd)*%
D22*
X74000000Y-79000000D02*
X72412500Y-79000000D01*
X74500000Y-79500000D02*
X74000000Y-79000000D01*
%TO.N,GND*%
X72412500Y-83662500D02*
X72500000Y-83750000D01*
X72412500Y-83000000D02*
X72412500Y-83662500D01*
X74500000Y-81050000D02*
X74500000Y-81750000D01*
%TO.N,/Dout*%
D21*
X57498004Y-82550000D02*
X57948004Y-83000000D01*
X57948004Y-83000000D02*
X58250000Y-83000000D01*
X56501996Y-82550000D02*
X57498004Y-82550000D01*
X56200000Y-82248004D02*
X56501996Y-82550000D01*
X56200000Y-81401996D02*
X56200000Y-82248004D01*
X55798004Y-81000000D02*
X56200000Y-81401996D01*
X55750000Y-79150000D02*
X55750000Y-81000000D01*
X55550000Y-78584052D02*
X55550000Y-78950000D01*
X55200000Y-78234052D02*
X55550000Y-78584052D01*
X55550000Y-78950000D02*
X55750000Y-79150000D01*
X55750000Y-81000000D02*
X55798004Y-81000000D01*
X55200000Y-77740000D02*
X55200000Y-78234052D01*
X52000000Y-74540000D02*
X55200000Y-77740000D01*
X58250000Y-83000000D02*
X58750000Y-83500000D01*
X58750000Y-83500000D02*
X58750000Y-84000000D01*
X58750000Y-84000000D02*
X59350000Y-84000000D01*
X70500000Y-82500000D02*
X70250000Y-82500000D01*
X71000000Y-82000000D02*
X70500000Y-82500000D01*
X72412500Y-82000000D02*
X71000000Y-82000000D01*
%TO.N,Net-(U20-OutW1)*%
X67087500Y-82000000D02*
X68250000Y-82000000D01*
X68250000Y-82000000D02*
X68375000Y-81875000D01*
X58000000Y-80925000D02*
X57100000Y-81825000D01*
X57100000Y-81825000D02*
X57000000Y-81825000D01*
%TO.N,/Bout*%
X69900000Y-80000000D02*
X72412500Y-80000000D01*
%TO.N,Net-(U20-OutG)*%
X68020280Y-80000000D02*
X67087500Y-80000000D01*
X69575000Y-81554720D02*
X68020280Y-80000000D01*
X68112304Y-84075000D02*
X69575000Y-82612304D01*
X63088604Y-82550000D02*
X64613604Y-84075000D01*
X64613604Y-84075000D02*
X68112304Y-84075000D01*
X59725000Y-82550000D02*
X63088604Y-82550000D01*
X59000000Y-81825000D02*
X59725000Y-82550000D01*
X69575000Y-82612304D02*
X69575000Y-81554720D01*
%TO.N,Net-(U20-OutR)*%
X66624092Y-79000000D02*
X67087500Y-79000000D01*
X65975000Y-80775000D02*
X65975000Y-79649092D01*
X65975000Y-79649092D02*
X66624092Y-79000000D01*
X65650000Y-81100000D02*
X65975000Y-80775000D01*
X61725000Y-81100000D02*
X65650000Y-81100000D01*
X61000000Y-81825000D02*
X61725000Y-81100000D01*
%TO.N,Net-(U20-OutB)*%
X68383884Y-81000000D02*
X67087500Y-81000000D01*
X69125000Y-82425908D02*
X69125000Y-81741116D01*
X64800000Y-83625000D02*
X67925908Y-83625000D01*
X67925908Y-83625000D02*
X69125000Y-82425908D01*
X63000000Y-81825000D02*
X64800000Y-83625000D01*
X69125000Y-81741116D02*
X68383884Y-81000000D01*
%TO.N,GND*%
D22*
X157600000Y-81879460D02*
X157600000Y-80075000D01*
X155662500Y-83000000D02*
X156479460Y-83000000D01*
X156479460Y-83000000D02*
X157600000Y-81879460D01*
%TO.N,Net-(U3-Vdd)*%
X156750000Y-77912500D02*
X156750000Y-77750000D01*
X155662500Y-79000000D02*
X156750000Y-77912500D01*
X157525000Y-78525000D02*
X157600000Y-78525000D01*
X156750000Y-77750000D02*
X157525000Y-78525000D01*
%TO.N,GND*%
X93479460Y-83000000D02*
X94500000Y-81979460D01*
X94500000Y-81979460D02*
X94500000Y-80075000D01*
X92662500Y-83000000D02*
X93479460Y-83000000D01*
%TO.N,Net-(U16-Vdd)*%
X93887500Y-77912500D02*
X94500000Y-78525000D01*
%TO.N,Net-(U24-OutW1)*%
D21*
X161800000Y-80925000D02*
X161800000Y-80225000D01*
X162000000Y-81125000D02*
X161800000Y-80925000D01*
X162000000Y-81800000D02*
X162000000Y-81125000D01*
X162901996Y-82550000D02*
X162600000Y-82248004D01*
X162950000Y-82550000D02*
X162901996Y-82550000D01*
X162600000Y-82248004D02*
X162448004Y-82248004D01*
X163000000Y-82648896D02*
X162950000Y-82598896D01*
X162950000Y-82598896D02*
X162950000Y-82550000D01*
X163000000Y-82669436D02*
X163000000Y-82648896D01*
X162448004Y-82248004D02*
X162000000Y-81800000D01*
X162892353Y-82777083D02*
X163000000Y-82669436D01*
%TO.N,GND*%
D22*
X162600000Y-77000000D02*
X161775000Y-77000000D01*
%TO.N,Net-(U12-OutW1)*%
D21*
X99750000Y-83000000D02*
X99300000Y-83000000D01*
X99000000Y-82700000D02*
X99000000Y-81125000D01*
X99300000Y-83000000D02*
X99000000Y-82700000D01*
X99000000Y-81125000D02*
X98500000Y-80625000D01*
%TO.N,GND*%
D22*
X99750000Y-77000000D02*
X98775000Y-77000000D01*
D23*
X61000000Y-84000000D02*
X61900000Y-84000000D01*
D21*
X51350000Y-83450000D02*
X51800000Y-83900000D01*
X51350000Y-83000000D02*
X51350000Y-83450000D01*
%TO.N,Net-(U16-OutW1)*%
X78000000Y-82100000D02*
X77275000Y-82100000D01*
X77275000Y-82100000D02*
X77000000Y-81825000D01*
%TO.N,Net-(U10-W1-C)*%
D22*
X108100000Y-71018873D02*
X110900000Y-71018873D01*
%TO.N,Net-(U10-G-C)*%
X108100000Y-71978873D02*
X110900000Y-71978873D01*
%TO.N,Net-(U10-R-C)*%
X108100000Y-72938873D02*
X110900000Y-72938873D01*
%TO.N,Net-(U10-B-C)*%
X108100000Y-73898873D02*
X110900000Y-73898873D01*
%TO.N,Net-(U10-W2-C)*%
X108100000Y-74858873D02*
X110900000Y-74858873D01*
%TO.N,Net-(U11-W1-C)*%
X87100000Y-71018873D02*
X89900000Y-71018873D01*
%TO.N,Net-(U11-G-C)*%
X87100000Y-71978873D02*
X89900000Y-71978873D01*
%TO.N,Net-(U11-R-C)*%
X87100000Y-72938873D02*
X89900000Y-72938873D01*
%TO.N,Net-(U11-B-C)*%
X87100000Y-73898873D02*
X89900000Y-73898873D01*
%TO.N,Net-(U11-W2-C)*%
X87100000Y-74858873D02*
X89900000Y-74858873D01*
%TO.N,Net-(U14-W1-A)*%
X150100000Y-71018873D02*
X152900000Y-71018873D01*
%TO.N,Net-(U14-G-A)*%
X150100000Y-71978873D02*
X152900000Y-71978873D01*
%TO.N,Net-(U14-R-A)*%
X150100000Y-72938873D02*
X152900000Y-72938873D01*
%TO.N,Net-(U14-B-A)*%
X150100000Y-73898873D02*
X152900000Y-73898873D01*
%TO.N,Net-(U14-W2-A)*%
X150100000Y-74858873D02*
X152900000Y-74858873D01*
%TO.N,GND*%
D21*
X52000000Y-79620000D02*
X52000000Y-82350000D01*
D22*
X199000000Y-82700000D02*
X199100000Y-82800000D01*
D21*
X52000000Y-82350000D02*
X51350000Y-83000000D01*
D22*
X202000000Y-79620000D02*
X200845000Y-80775000D01*
X56875000Y-77775000D02*
X56900000Y-77800000D01*
X200845000Y-80775000D02*
X199000000Y-80775000D01*
X198990000Y-82910000D02*
X197100000Y-82910000D01*
X140775000Y-77000000D02*
X140775000Y-77775000D01*
X77800000Y-77800000D02*
X77775000Y-77775000D01*
X182775000Y-77775000D02*
X182800000Y-77800000D01*
X182775000Y-77000000D02*
X182775000Y-77775000D01*
X119775000Y-77000000D02*
X119775000Y-77775000D01*
X199000000Y-80775000D02*
X199000000Y-82700000D01*
X56000000Y-77775000D02*
X56875000Y-77775000D01*
X199100000Y-82800000D02*
X198990000Y-82910000D01*
X119775000Y-77775000D02*
X119800000Y-77800000D01*
X140775000Y-77775000D02*
X140800000Y-77800000D01*
X77775000Y-77775000D02*
X77775000Y-77000000D01*
%TO.N,Net-(U8-OutW1)*%
D21*
X119000000Y-82600000D02*
X119300000Y-82900000D01*
X129850000Y-82000000D02*
X129900000Y-81950000D01*
X119000000Y-81825000D02*
X119000000Y-82600000D01*
X128700000Y-82000000D02*
X129850000Y-82000000D01*
%TO.N,Net-(U20-OutW2)*%
X65000000Y-81825000D02*
X65000000Y-82400000D01*
X65000000Y-82400000D02*
X65510000Y-82910000D01*
X65510000Y-82910000D02*
X66900000Y-82910000D01*
%TO.N,+12V*%
D22*
X161100000Y-73900000D02*
X161098873Y-73898873D01*
D24*
X159900000Y-71978873D02*
X159900000Y-76775000D01*
D22*
X182178873Y-71978873D02*
X182200000Y-72000000D01*
X117900000Y-73898873D02*
X119098873Y-73898873D01*
D24*
X52000000Y-72000000D02*
X54878873Y-72000000D01*
D22*
X182198873Y-73898873D02*
X182200000Y-73900000D01*
D24*
X96900000Y-71978873D02*
X96900000Y-76775000D01*
X55900000Y-76125000D02*
X56000000Y-76125000D01*
X54878873Y-72000000D02*
X54900000Y-71978873D01*
D22*
X138750000Y-73898873D02*
X139998873Y-73898873D01*
X161178873Y-71978873D02*
X159900000Y-71978873D01*
X96900000Y-73898873D02*
X98098873Y-73898873D01*
D24*
X54900000Y-74858873D02*
X54900000Y-75125000D01*
D22*
X76028873Y-71850000D02*
X75900000Y-71978873D01*
D24*
X75900000Y-71978873D02*
X75900000Y-74200000D01*
D22*
X98098873Y-73898873D02*
X98100000Y-73900000D01*
X77100000Y-71850000D02*
X76028873Y-71850000D01*
D24*
X117900000Y-71978873D02*
X117900000Y-76775000D01*
D22*
X139978873Y-71978873D02*
X140000000Y-72000000D01*
X117900000Y-71978873D02*
X119078873Y-71978873D01*
X180900000Y-73898873D02*
X182198873Y-73898873D01*
D24*
X180900000Y-71978873D02*
X180900000Y-76775000D01*
X138750000Y-71978873D02*
X138750000Y-76350000D01*
D22*
X138750000Y-71978873D02*
X139978873Y-71978873D01*
X139998873Y-73898873D02*
X140000000Y-73900000D01*
X77000000Y-74200000D02*
X75900000Y-74200000D01*
X180900000Y-71978873D02*
X182178873Y-71978873D01*
D24*
X54900000Y-75125000D02*
X55900000Y-76125000D01*
D22*
X119098873Y-73898873D02*
X119100000Y-73900000D01*
X98078873Y-71978873D02*
X98100000Y-72000000D01*
D24*
X75900000Y-74200000D02*
X75900000Y-76775000D01*
D22*
X119078873Y-71978873D02*
X119100000Y-72000000D01*
X161098873Y-73898873D02*
X159900000Y-73898873D01*
D24*
X54900000Y-74858873D02*
X54900000Y-71978873D01*
D22*
X96900000Y-71978873D02*
X98078873Y-71978873D01*
%TO.N,Net-(U2-W2-C)*%
X122100000Y-74858873D02*
X124900000Y-74858873D01*
%TO.N,Net-(U2-B-C)*%
X122100000Y-73898873D02*
X124900000Y-73898873D01*
%TO.N,Net-(U2-R-C)*%
X122100000Y-72938873D02*
X124900000Y-72938873D01*
%TO.N,Net-(U2-G-C)*%
X122100000Y-71978873D02*
X124900000Y-71978873D01*
%TO.N,Net-(U2-W1-C)*%
X122100000Y-71018873D02*
X124900000Y-71018873D01*
%TO.N,Net-(U13-W2-A)*%
X59100000Y-74858873D02*
X61900000Y-74858873D01*
%TO.N,Net-(U13-B-A)*%
X59100000Y-73898873D02*
X61900000Y-73898873D01*
%TO.N,Net-(U13-R-A)*%
X59100000Y-72938873D02*
X61900000Y-72938873D01*
%TO.N,Net-(U13-G-A)*%
X59100000Y-71978873D02*
X61900000Y-71978873D01*
%TO.N,Net-(U13-W1-A)*%
X59100000Y-71018873D02*
X61900000Y-71018873D01*
%TO.N,Net-(U10-W2-A)*%
X101100000Y-74858873D02*
X103900000Y-74858873D01*
%TO.N,Net-(U10-B-A)*%
X101100000Y-73898873D02*
X103900000Y-73898873D01*
%TO.N,Net-(U10-R-A)*%
X101100000Y-72938873D02*
X103900000Y-72938873D01*
%TO.N,Net-(U10-G-A)*%
X101100000Y-71978873D02*
X103900000Y-71978873D01*
%TO.N,Net-(U10-W1-A)*%
X101100000Y-71018873D02*
X103900000Y-71018873D01*
%TO.N,Net-(U15-W2-A)*%
X129100000Y-74858873D02*
X131900000Y-74858873D01*
%TO.N,Net-(U15-B-A)*%
X129100000Y-73898873D02*
X131900000Y-73898873D01*
%TO.N,Net-(U15-R-A)*%
X129100000Y-72938873D02*
X131900000Y-72938873D01*
%TO.N,Net-(U15-G-A)*%
X129100000Y-71978873D02*
X131900000Y-71978873D01*
%TO.N,Net-(U15-W1-A)*%
X129100000Y-71018873D02*
X131900000Y-71018873D01*
%TO.N,/Bout*%
D21*
X53305000Y-78255000D02*
X54800000Y-79750000D01*
X54800000Y-81200000D02*
X53000000Y-83000000D01*
X52000000Y-77080000D02*
X53175000Y-78255000D01*
X89858058Y-80541942D02*
X89858058Y-80741942D01*
X54800000Y-79750000D02*
X54800000Y-80350000D01*
X53175000Y-78255000D02*
X53305000Y-78255000D01*
X89858058Y-80741942D02*
X91066116Y-81950000D01*
X89300000Y-79900000D02*
X89300000Y-79983884D01*
X89300000Y-79983884D02*
X89858058Y-80541942D01*
X54800000Y-80350000D02*
X54800000Y-81200000D01*
X91066116Y-81950000D02*
X92100000Y-81950000D01*
%TO.N,/LEDGruppe2/Dout*%
X90800000Y-80000000D02*
X92070000Y-80000000D01*
X110503157Y-79903157D02*
X111275000Y-80675000D01*
X111275000Y-81258884D02*
X111966116Y-81950000D01*
X92070000Y-80000000D02*
X92100000Y-80030000D01*
X111275000Y-80675000D02*
X111275000Y-81258884D01*
X110312959Y-79903157D02*
X110503157Y-79903157D01*
X111966116Y-81950000D02*
X113100000Y-81950000D01*
%TO.N,/LEDGruppe1/Dout*%
X132666116Y-81950000D02*
X134100000Y-81950000D01*
X131500000Y-80694166D02*
X131975000Y-81169166D01*
X131500000Y-80100000D02*
X131500000Y-80694166D01*
X113030000Y-80100000D02*
X113100000Y-80030000D01*
X131975000Y-81169166D02*
X131975000Y-81258884D01*
X111700000Y-80100000D02*
X113030000Y-80100000D01*
X131975000Y-81258884D02*
X132666116Y-81950000D01*
X90900000Y-80900000D02*
X90990000Y-80990000D01*
X90990000Y-80990000D02*
X92100000Y-80990000D01*
%TO.N,Net-(U8-OutW2)*%
X128085000Y-82910000D02*
X129900000Y-82910000D01*
X127000000Y-81825000D02*
X128085000Y-82910000D01*
%TO.N,/LEDGruppe/Dout*%
X152875000Y-80475000D02*
X152875000Y-81069166D01*
X152300000Y-80200000D02*
X152600000Y-80200000D01*
X152875000Y-81069166D02*
X153755834Y-81950000D01*
X152600000Y-80200000D02*
X152875000Y-80475000D01*
X111910000Y-80990000D02*
X113100000Y-80990000D01*
X153755834Y-81950000D02*
X155100000Y-81950000D01*
X111900000Y-81000000D02*
X111910000Y-80990000D01*
X133930000Y-80200000D02*
X134100000Y-80030000D01*
X132800000Y-80200000D02*
X133930000Y-80200000D01*
%TO.N,Net-(U11-W1-A)*%
D22*
X80100000Y-71018873D02*
X82900000Y-71018873D01*
%TO.N,Net-(U11-G-A)*%
X80100000Y-71978873D02*
X82900000Y-71978873D01*
%TO.N,Net-(U11-R-A)*%
X80100000Y-72938873D02*
X82900000Y-72938873D01*
%TO.N,Net-(U11-B-A)*%
X80100000Y-73898873D02*
X82900000Y-73898873D01*
%TO.N,Net-(U11-W2-A)*%
X80100000Y-74858873D02*
X82900000Y-74858873D01*
%TO.N,Net-(U13-W2-C)*%
X66100000Y-74858873D02*
X68900000Y-74858873D01*
%TO.N,Net-(U13-B-C)*%
X66100000Y-73898873D02*
X68900000Y-73898873D01*
%TO.N,Net-(U13-R-C)*%
X66100000Y-72938873D02*
X68900000Y-72938873D01*
%TO.N,Net-(U13-G-C)*%
X66100000Y-71978873D02*
X68900000Y-71978873D01*
%TO.N,Net-(U13-W1-C)*%
X66100000Y-71018873D02*
X68900000Y-71018873D01*
%TO.N,Net-(U1-W2-C)*%
X142950000Y-74858873D02*
X145900000Y-74858873D01*
%TO.N,Net-(U1-B-C)*%
X142950000Y-73898873D02*
X145900000Y-73898873D01*
%TO.N,Net-(U1-R-C)*%
X142950000Y-72938873D02*
X145900000Y-72938873D01*
%TO.N,Net-(U1-G-C)*%
X142950000Y-71978873D02*
X145900000Y-71978873D01*
%TO.N,Net-(U1-W1-C)*%
X142950000Y-71018873D02*
X145900000Y-71018873D01*
%TO.N,Net-(U3-OutW1)*%
D21*
X149500000Y-82000000D02*
X150850000Y-82000000D01*
X140600000Y-82800000D02*
X140600000Y-82900000D01*
X140000000Y-81825000D02*
X140000000Y-82200000D01*
X140000000Y-82200000D02*
X140600000Y-82800000D01*
X150850000Y-82000000D02*
X150900000Y-81950000D01*
%TO.N,Net-(U3-OutW2)*%
X150900000Y-82910000D02*
X149085000Y-82910000D01*
X149085000Y-82910000D02*
X148000000Y-81825000D01*
%TO.N,Net-(U24-OutW2)*%
X170085000Y-82910000D02*
X171900000Y-82910000D01*
X169000000Y-81825000D02*
X170085000Y-82910000D01*
%TO.N,Net-(U27-W1-C)*%
X186616127Y-75558873D02*
X182000000Y-80175000D01*
X196000000Y-73400000D02*
X196000000Y-75159155D01*
X198381127Y-71018873D02*
X196000000Y-73400000D01*
X199100000Y-71018873D02*
X198381127Y-71018873D01*
X195600282Y-75558873D02*
X186616127Y-75558873D01*
X196000000Y-75159155D02*
X195600282Y-75558873D01*
%TO.N,Net-(U27-G-C)*%
X198500000Y-71978873D02*
X196450000Y-74028873D01*
X199100000Y-71978873D02*
X198500000Y-71978873D01*
X186991127Y-76008873D02*
X184000000Y-79000000D01*
X196450000Y-74028873D02*
X196450000Y-75345551D01*
X196450000Y-75345551D02*
X195786678Y-76008873D01*
X184000000Y-79000000D02*
X184000000Y-80175000D01*
X195786678Y-76008873D02*
X186991127Y-76008873D01*
%TO.N,/LEDGruppe/Din*%
X174866116Y-81950000D02*
X176100000Y-81950000D01*
X153400000Y-80100000D02*
X155030000Y-80100000D01*
X134100000Y-80990000D02*
X132610000Y-80990000D01*
X173658058Y-80058058D02*
X173658058Y-80741942D01*
X155030000Y-80100000D02*
X155100000Y-80030000D01*
X132610000Y-80990000D02*
X132600000Y-81000000D01*
X173658058Y-80741942D02*
X174866116Y-81950000D01*
%TO.N,Net-(U21-B-C)*%
D22*
X164100000Y-73898873D02*
X166900000Y-73898873D01*
%TO.N,Net-(U21-R-C)*%
X164100000Y-72938873D02*
X166900000Y-72938873D01*
%TO.N,Net-(U21-W2-C)*%
X164100000Y-74858873D02*
X166900000Y-74858873D01*
%TO.N,Net-(U21-W1-C)*%
X164100000Y-71018873D02*
X166900000Y-71018873D01*
%TO.N,Net-(U21-G-C)*%
X164100000Y-71978873D02*
X166900000Y-71978873D01*
%TO.N,Net-(U22-G-C)*%
X171100000Y-71978873D02*
X173900000Y-71978873D01*
%TO.N,Net-(U22-W2-C)*%
X171100000Y-74858873D02*
X173900000Y-74858873D01*
%TO.N,Net-(U22-B-C)*%
X171100000Y-73898873D02*
X173900000Y-73898873D01*
%TO.N,Net-(U22-W1-C)*%
X171100000Y-71018873D02*
X173900000Y-71018873D01*
%TO.N,Net-(U22-R-C)*%
X171100000Y-72938873D02*
X173900000Y-72938873D01*
%TO.N,Net-(U25-R-C)*%
X185100000Y-72938873D02*
X187900000Y-72938873D01*
%TO.N,Net-(U25-B-C)*%
X185100000Y-73898873D02*
X187900000Y-73898873D01*
%TO.N,Net-(U25-G-C)*%
X185100000Y-71978873D02*
X187900000Y-71978873D01*
%TO.N,Net-(U25-W2-C)*%
X185100000Y-74858873D02*
X187900000Y-74858873D01*
%TO.N,Net-(U25-W1-C)*%
X185100000Y-71018873D02*
X187900000Y-71018873D01*
%TO.N,Net-(U26-B-C)*%
X192100000Y-73898873D02*
X194900000Y-73898873D01*
%TO.N,Net-(U26-W1-C)*%
X192100000Y-71018873D02*
X194900000Y-71018873D01*
%TO.N,Net-(U26-G-C)*%
X192100000Y-71978873D02*
X194900000Y-71978873D01*
%TO.N,Net-(U26-W2-C)*%
X192100000Y-74858873D02*
X194900000Y-74858873D01*
%TO.N,Net-(U26-R-C)*%
X192100000Y-72938873D02*
X194900000Y-72938873D01*
%TD*%
D25*
X50000000Y-70000000D02*
X204000000Y-70000000D01*
X204000000Y-85000000D01*
X50000000Y-85000000D01*
X50000000Y-70000000D01*
M02*
