%TF.GenerationSoftware,KiCad,Pcbnew,10.0.3*%
%TF.CreationDate,2026-07-07T07:31:25+02:00*%
%TF.ProjectId,RGBWW-LED,52474257-572d-44c4-9544-2e6b69636164,1*%
%TF.SameCoordinates,Original*%
%TF.FileFunction,Paste,Top*%
%TF.FilePolarity,Positive*%
%FSLAX46Y46*%
G04 Gerber Fmt 4.6, Leading zero omitted, Abs format (unit mm)*
G04 Created by KiCad (PCBNEW 10.0.3) date 2026-07-07 07:31:25*
%MOMM*%
%LPD*%
G01*
G04 APERTURE LIST*
G04 Aperture macros list*
%AMRoundRect*
0 Rectangle with rounded corners*
0 $1 Rounding radius*
0 $2 $3 $4 $5 $6 $7 $8 $9 X,Y pos of 4 corners*
0 Add a 4 corners polygon primitive as box body*
4,1,4,$2,$3,$4,$5,$6,$7,$8,$9,$2,$3,0*
0 Add four circle primitives for the rounded corners*
1,1,$1+$1,$2,$3*
1,1,$1+$1,$4,$5*
1,1,$1+$1,$6,$7*
1,1,$1+$1,$8,$9*
0 Add four rect primitives between the rounded corners*
20,1,$1+$1,$2,$3,$4,$5,0*
20,1,$1+$1,$4,$5,$6,$7,0*
20,1,$1+$1,$6,$7,$8,$9,0*
20,1,$1+$1,$8,$9,$2,$3,0*%
G04 Aperture macros list end*
%ADD10RoundRect,0.200000X-0.275000X0.200000X-0.275000X-0.200000X0.275000X-0.200000X0.275000X0.200000X0*%
%ADD11RoundRect,0.072000X-0.678000X-0.168000X0.678000X-0.168000X0.678000X0.168000X-0.678000X0.168000X0*%
%ADD12RoundRect,0.225000X-0.250000X0.225000X-0.250000X-0.225000X0.250000X-0.225000X0.250000X0.225000X0*%
%ADD13RoundRect,0.200000X0.200000X0.275000X-0.200000X0.275000X-0.200000X-0.275000X0.200000X-0.275000X0*%
%ADD14RoundRect,0.225000X-0.225000X-0.250000X0.225000X-0.250000X0.225000X0.250000X-0.225000X0.250000X0*%
%ADD15RoundRect,0.150000X-0.637500X-0.150000X0.637500X-0.150000X0.637500X0.150000X-0.637500X0.150000X0*%
%ADD16RoundRect,0.200000X-0.200000X-0.275000X0.200000X-0.275000X0.200000X0.275000X-0.200000X0.275000X0*%
%TA.AperFunction,Profile*%
%ADD17C,0.050000*%
%TD*%
G04 APERTURE END LIST*
D10*
%TO.C,R10*%
X125000000Y-80175000D03*
X125000000Y-81825000D03*
%TD*%
%TO.C,R36*%
X167000000Y-80175000D03*
X167000000Y-81825000D03*
%TD*%
%TO.C,R22*%
X83000000Y-80175000D03*
X83000000Y-81825000D03*
%TD*%
%TO.C,R9*%
X123000000Y-80175000D03*
X123000000Y-81825000D03*
%TD*%
D11*
%TO.C,U17*%
X110750000Y-71030000D03*
X110750000Y-71990000D03*
X110750000Y-72950000D03*
X110750000Y-73910000D03*
X110750000Y-74870000D03*
X115250000Y-74870000D03*
X115250000Y-73910000D03*
X115250000Y-72950000D03*
X115250000Y-71990000D03*
X115250000Y-71030000D03*
%TD*%
%TO.C,U22*%
X166750000Y-71030000D03*
X166750000Y-71990000D03*
X166750000Y-72950000D03*
X166750000Y-73910000D03*
X166750000Y-74870000D03*
X171250000Y-74870000D03*
X171250000Y-73910000D03*
X171250000Y-72950000D03*
X171250000Y-71990000D03*
X171250000Y-71030000D03*
%TD*%
D10*
%TO.C,R34*%
X163400000Y-80175000D03*
X163400000Y-81825000D03*
%TD*%
%TO.C,R20*%
X79000000Y-80175000D03*
X79000000Y-81825000D03*
%TD*%
%TO.C,R17*%
X106000000Y-80175000D03*
X106000000Y-81825000D03*
%TD*%
%TO.C,R15*%
X102000000Y-80175000D03*
X102000000Y-81825000D03*
%TD*%
D11*
%TO.C,U18*%
X89750000Y-71030000D03*
X89750000Y-71990000D03*
X89750000Y-72950000D03*
X89750000Y-73910000D03*
X89750000Y-74870000D03*
X94250000Y-74870000D03*
X94250000Y-73910000D03*
X94250000Y-72950000D03*
X94250000Y-71990000D03*
X94250000Y-71030000D03*
%TD*%
%TO.C,U14*%
X152750000Y-71030000D03*
X152750000Y-71990000D03*
X152750000Y-72950000D03*
X152750000Y-73910000D03*
X152750000Y-74870000D03*
X157250000Y-74870000D03*
X157250000Y-73910000D03*
X157250000Y-72950000D03*
X157250000Y-71990000D03*
X157250000Y-71030000D03*
%TD*%
D12*
%TO.C,C10*%
X74500000Y-79500000D03*
X74500000Y-81050000D03*
%TD*%
%TO.C,C8*%
X94500000Y-78525000D03*
X94500000Y-80075000D03*
%TD*%
D10*
%TO.C,R7*%
X119000000Y-80175000D03*
X119000000Y-81825000D03*
%TD*%
%TO.C,R5*%
X146000000Y-80175000D03*
X146000000Y-81825000D03*
%TD*%
%TO.C,R13*%
X98750000Y-78750000D03*
X98750000Y-80400000D03*
%TD*%
%TO.C,R33*%
X161800000Y-78575000D03*
X161800000Y-80225000D03*
%TD*%
%TO.C,R29*%
X65000000Y-80175000D03*
X65000000Y-81825000D03*
%TD*%
D13*
%TO.C,R12*%
X137075000Y-77000000D03*
X135425000Y-77000000D03*
%TD*%
D11*
%TO.C,U25*%
X180750000Y-71030000D03*
X180750000Y-71990000D03*
X180750000Y-72950000D03*
X180750000Y-73910000D03*
X180750000Y-74870000D03*
X185250000Y-74870000D03*
X185250000Y-73910000D03*
X185250000Y-72950000D03*
X185250000Y-71990000D03*
X185250000Y-71030000D03*
%TD*%
D14*
%TO.C,C2*%
X139225000Y-77000000D03*
X140775000Y-77000000D03*
%TD*%
D11*
%TO.C,U2*%
X117750000Y-71030000D03*
X117750000Y-71990000D03*
X117750000Y-72950000D03*
X117750000Y-73910000D03*
X117750000Y-74870000D03*
X122250000Y-74870000D03*
X122250000Y-73910000D03*
X122250000Y-72950000D03*
X122250000Y-71990000D03*
X122250000Y-71030000D03*
%TD*%
D12*
%TO.C,C4*%
X136750000Y-79225000D03*
X136750000Y-80775000D03*
%TD*%
D14*
%TO.C,C7*%
X76225000Y-77000000D03*
X77775000Y-77000000D03*
%TD*%
D11*
%TO.C,U6*%
X54750000Y-71030000D03*
X54750000Y-71990000D03*
X54750000Y-72950000D03*
X54750000Y-73910000D03*
X54750000Y-74870000D03*
X59250000Y-74870000D03*
X59250000Y-73910000D03*
X59250000Y-72950000D03*
X59250000Y-71990000D03*
X59250000Y-71030000D03*
%TD*%
D12*
%TO.C,C14*%
X199000000Y-79225000D03*
X199000000Y-80775000D03*
%TD*%
D10*
%TO.C,R16*%
X104000000Y-80175000D03*
X104000000Y-81825000D03*
%TD*%
D11*
%TO.C,U27*%
X194750000Y-71030000D03*
X194750000Y-71990000D03*
X194750000Y-72950000D03*
X194750000Y-73910000D03*
X194750000Y-74870000D03*
X199250000Y-74870000D03*
X199250000Y-73910000D03*
X199250000Y-72950000D03*
X199250000Y-71990000D03*
X199250000Y-71030000D03*
%TD*%
D15*
%TO.C,U28*%
X191587500Y-79000000D03*
X191587500Y-80000000D03*
X191587500Y-81000000D03*
X191587500Y-82000000D03*
X191587500Y-83000000D03*
X196912500Y-83000000D03*
X196912500Y-82000000D03*
X196912500Y-81000000D03*
X196912500Y-80000000D03*
X196912500Y-79000000D03*
%TD*%
D11*
%TO.C,U4*%
X96750000Y-71030000D03*
X96750000Y-71990000D03*
X96750000Y-72950000D03*
X96750000Y-73910000D03*
X96750000Y-74870000D03*
X101250000Y-74870000D03*
X101250000Y-73910000D03*
X101250000Y-72950000D03*
X101250000Y-71990000D03*
X101250000Y-71030000D03*
%TD*%
%TO.C,U9*%
X124750000Y-71030000D03*
X124750000Y-71990000D03*
X124750000Y-72950000D03*
X124750000Y-73910000D03*
X124750000Y-74870000D03*
X129250000Y-74870000D03*
X129250000Y-73910000D03*
X129250000Y-72950000D03*
X129250000Y-71990000D03*
X129250000Y-71030000D03*
%TD*%
D13*
%TO.C,R31*%
X53000000Y-83000000D03*
X51350000Y-83000000D03*
%TD*%
D10*
%TO.C,R14*%
X100500000Y-80175000D03*
X100500000Y-81825000D03*
%TD*%
D13*
%TO.C,R18*%
X115825000Y-77000000D03*
X114175000Y-77000000D03*
%TD*%
D15*
%TO.C,U20*%
X67087500Y-79000000D03*
X67087500Y-80000000D03*
X67087500Y-81000000D03*
X67087500Y-82000000D03*
X67087500Y-83000000D03*
X72412500Y-83000000D03*
X72412500Y-82000000D03*
X72412500Y-81000000D03*
X72412500Y-80000000D03*
X72412500Y-79000000D03*
%TD*%
D10*
%TO.C,R26*%
X59000000Y-80175000D03*
X59000000Y-81825000D03*
%TD*%
D14*
%TO.C,C11*%
X160225000Y-77000000D03*
X161775000Y-77000000D03*
%TD*%
D15*
%TO.C,U16*%
X87337500Y-79000000D03*
X87337500Y-80000000D03*
X87337500Y-81000000D03*
X87337500Y-82000000D03*
X87337500Y-83000000D03*
X92662500Y-83000000D03*
X92662500Y-82000000D03*
X92662500Y-81000000D03*
X92662500Y-80000000D03*
X92662500Y-79000000D03*
%TD*%
D10*
%TO.C,R19*%
X77000000Y-80175000D03*
X77000000Y-81825000D03*
%TD*%
%TO.C,R42*%
X187500000Y-80175000D03*
X187500000Y-81825000D03*
%TD*%
D11*
%TO.C,U15*%
X131750000Y-71030000D03*
X131750000Y-71990000D03*
X131750000Y-72950000D03*
X131750000Y-73910000D03*
X131750000Y-74870000D03*
X136250000Y-74870000D03*
X136250000Y-73910000D03*
X136250000Y-72950000D03*
X136250000Y-71990000D03*
X136250000Y-71030000D03*
%TD*%
D14*
%TO.C,C3*%
X118225000Y-77000000D03*
X119775000Y-77000000D03*
%TD*%
D10*
%TO.C,R23*%
X85000000Y-80175000D03*
X85000000Y-81825000D03*
%TD*%
%TO.C,R4*%
X144000000Y-80175000D03*
X144000000Y-81825000D03*
%TD*%
D13*
%TO.C,R1*%
X158075000Y-77000000D03*
X156425000Y-77000000D03*
%TD*%
D11*
%TO.C,U10*%
X103750000Y-71030000D03*
X103750000Y-71990000D03*
X103750000Y-72950000D03*
X103750000Y-73910000D03*
X103750000Y-74870000D03*
X108250000Y-74870000D03*
X108250000Y-73910000D03*
X108250000Y-72950000D03*
X108250000Y-71990000D03*
X108250000Y-71030000D03*
%TD*%
D15*
%TO.C,U8*%
X129337500Y-79000000D03*
X129337500Y-80000000D03*
X129337500Y-81000000D03*
X129337500Y-82000000D03*
X129337500Y-83000000D03*
X134662500Y-83000000D03*
X134662500Y-82000000D03*
X134662500Y-81000000D03*
X134662500Y-80000000D03*
X134662500Y-79000000D03*
%TD*%
D16*
%TO.C,R32*%
X59350000Y-84000000D03*
X61000000Y-84000000D03*
%TD*%
D10*
%TO.C,R40*%
X184000000Y-80175000D03*
X184000000Y-81825000D03*
%TD*%
%TO.C,R8*%
X121000000Y-80175000D03*
X121000000Y-81825000D03*
%TD*%
D13*
%TO.C,R38*%
X178825000Y-77000000D03*
X177175000Y-77000000D03*
%TD*%
D11*
%TO.C,U11*%
X82750000Y-71030000D03*
X82750000Y-71990000D03*
X82750000Y-72950000D03*
X82750000Y-73910000D03*
X82750000Y-74870000D03*
X87250000Y-74870000D03*
X87250000Y-73910000D03*
X87250000Y-72950000D03*
X87250000Y-71990000D03*
X87250000Y-71030000D03*
%TD*%
%TO.C,U21*%
X159750000Y-71030000D03*
X159750000Y-71990000D03*
X159750000Y-72950000D03*
X159750000Y-73910000D03*
X159750000Y-74870000D03*
X164250000Y-74870000D03*
X164250000Y-73910000D03*
X164250000Y-72950000D03*
X164250000Y-71990000D03*
X164250000Y-71030000D03*
%TD*%
D12*
%TO.C,C9*%
X56000000Y-76225000D03*
X56000000Y-77775000D03*
%TD*%
%TO.C,C1*%
X157600000Y-78525000D03*
X157600000Y-80075000D03*
%TD*%
D10*
%TO.C,R43*%
X189250000Y-80175000D03*
X189250000Y-81825000D03*
%TD*%
D11*
%TO.C,U13*%
X61750000Y-71030000D03*
X61750000Y-71990000D03*
X61750000Y-72950000D03*
X61750000Y-73910000D03*
X61750000Y-74870000D03*
X66250000Y-74870000D03*
X66250000Y-73910000D03*
X66250000Y-72950000D03*
X66250000Y-71990000D03*
X66250000Y-71030000D03*
%TD*%
D13*
%TO.C,R44*%
X199475000Y-77350000D03*
X197825000Y-77350000D03*
%TD*%
D11*
%TO.C,U26*%
X187750000Y-71030000D03*
X187750000Y-71990000D03*
X187750000Y-72950000D03*
X187750000Y-73910000D03*
X187750000Y-74870000D03*
X192250000Y-74870000D03*
X192250000Y-73910000D03*
X192250000Y-72950000D03*
X192250000Y-71990000D03*
X192250000Y-71030000D03*
%TD*%
D10*
%TO.C,R3*%
X142000000Y-80175000D03*
X142000000Y-81825000D03*
%TD*%
D11*
%TO.C,U1*%
X138600000Y-71030000D03*
X138600000Y-71990000D03*
X138600000Y-72950000D03*
X138600000Y-73910000D03*
X138600000Y-74870000D03*
X143100000Y-74870000D03*
X143100000Y-73910000D03*
X143100000Y-72950000D03*
X143100000Y-71990000D03*
X143100000Y-71030000D03*
%TD*%
D10*
%TO.C,R21*%
X81000000Y-80175000D03*
X81000000Y-81825000D03*
%TD*%
D15*
%TO.C,U12*%
X108337500Y-79000000D03*
X108337500Y-80000000D03*
X108337500Y-81000000D03*
X108337500Y-82000000D03*
X108337500Y-83000000D03*
X113662500Y-83000000D03*
X113662500Y-82000000D03*
X113662500Y-81000000D03*
X113662500Y-80000000D03*
X113662500Y-79000000D03*
%TD*%
%TO.C,U24*%
X171337500Y-79000000D03*
X171337500Y-80000000D03*
X171337500Y-81000000D03*
X171337500Y-82000000D03*
X171337500Y-83000000D03*
X176662500Y-83000000D03*
X176662500Y-82000000D03*
X176662500Y-81000000D03*
X176662500Y-80000000D03*
X176662500Y-79000000D03*
%TD*%
D10*
%TO.C,R41*%
X185750000Y-80175000D03*
X185750000Y-81825000D03*
%TD*%
%TO.C,R39*%
X182000000Y-80175000D03*
X182000000Y-81825000D03*
%TD*%
D15*
%TO.C,U3*%
X150337500Y-79000000D03*
X150337500Y-80000000D03*
X150337500Y-81000000D03*
X150337500Y-82000000D03*
X150337500Y-83000000D03*
X155662500Y-83000000D03*
X155662500Y-82000000D03*
X155662500Y-81000000D03*
X155662500Y-80000000D03*
X155662500Y-79000000D03*
%TD*%
D13*
%TO.C,R24*%
X95075000Y-77000000D03*
X93425000Y-77000000D03*
%TD*%
D10*
%TO.C,R37*%
X169000000Y-80175000D03*
X169000000Y-81825000D03*
%TD*%
D14*
%TO.C,C13*%
X181225000Y-77000000D03*
X182775000Y-77000000D03*
%TD*%
D10*
%TO.C,R35*%
X165000000Y-80175000D03*
X165000000Y-81825000D03*
%TD*%
D11*
%TO.C,U23*%
X173750000Y-71030000D03*
X173750000Y-71990000D03*
X173750000Y-72950000D03*
X173750000Y-73910000D03*
X173750000Y-74870000D03*
X178250000Y-74870000D03*
X178250000Y-73910000D03*
X178250000Y-72950000D03*
X178250000Y-71990000D03*
X178250000Y-71030000D03*
%TD*%
D10*
%TO.C,R2*%
X140000000Y-80175000D03*
X140000000Y-81825000D03*
%TD*%
D12*
%TO.C,C6*%
X115750000Y-79225000D03*
X115750000Y-80775000D03*
%TD*%
%TO.C,C12*%
X178750000Y-79225000D03*
X178750000Y-80775000D03*
%TD*%
D10*
%TO.C,R6*%
X148000000Y-80175000D03*
X148000000Y-81825000D03*
%TD*%
%TO.C,R28*%
X63000000Y-80175000D03*
X63000000Y-81825000D03*
%TD*%
D13*
%TO.C,R30*%
X74075000Y-77000000D03*
X72425000Y-77000000D03*
%TD*%
D11*
%TO.C,U5*%
X75750000Y-71030000D03*
X75750000Y-71990000D03*
X75750000Y-72950000D03*
X75750000Y-73910000D03*
X75750000Y-74870000D03*
X80250000Y-74870000D03*
X80250000Y-73910000D03*
X80250000Y-72950000D03*
X80250000Y-71990000D03*
X80250000Y-71030000D03*
%TD*%
D10*
%TO.C,R27*%
X61000000Y-80175000D03*
X61000000Y-81825000D03*
%TD*%
D11*
%TO.C,U7*%
X145750000Y-71030000D03*
X145750000Y-71990000D03*
X145750000Y-72950000D03*
X145750000Y-73910000D03*
X145750000Y-74870000D03*
X150250000Y-74870000D03*
X150250000Y-73910000D03*
X150250000Y-72950000D03*
X150250000Y-71990000D03*
X150250000Y-71030000D03*
%TD*%
%TO.C,U19*%
X68750000Y-71030000D03*
X68750000Y-71990000D03*
X68750000Y-72950000D03*
X68750000Y-73910000D03*
X68750000Y-74870000D03*
X73250000Y-74870000D03*
X73250000Y-73910000D03*
X73250000Y-72950000D03*
X73250000Y-71990000D03*
X73250000Y-71030000D03*
%TD*%
D10*
%TO.C,R25*%
X57000000Y-80175000D03*
X57000000Y-81825000D03*
%TD*%
D14*
%TO.C,C5*%
X97225000Y-77000000D03*
X98775000Y-77000000D03*
%TD*%
D10*
%TO.C,R11*%
X127000000Y-80175000D03*
X127000000Y-81825000D03*
%TD*%
D17*
X50000000Y-70000000D02*
X204000000Y-70000000D01*
X204000000Y-85000000D01*
X50000000Y-85000000D01*
X50000000Y-70000000D01*
M02*
