M48
; DRILL file KiCad 10.0.3 date 2026-07-07T07:31:40
; FORMAT={-:-/ absolute / metric / decimal}
; #@! TF.CreationDate,2026-07-07T07:31:40+02:00
; #@! TF.GenerationSoftware,Kicad,Pcbnew,10.0.3
; #@! TF.FileFunction,Plated,1,2,PTH
FMAT,2
METRIC
; #@! TA.AperFunction,Plated,PTH,ViaDrill
T1C0.300
; #@! TA.AperFunction,Plated,PTH,ComponentDrill
T2C1.000
%
G90
G05
T1
X51.8Y-83.9
X54.8Y-80.35
X56.9Y-77.8
X58.0Y-80.925
X58.25Y-83.0
X61.9Y-84.0
X68.375Y-81.875
X69.9Y-80.0
X70.25Y-82.5
X71.0Y-80.95
X72.5Y-83.75
X74.5Y-81.75
X77.0Y-74.2
X77.1Y-71.85
X77.8Y-77.8
X78.0Y-82.1
X88.75Y-81.971
X89.3Y-79.9
X90.8Y-80.0
X90.9Y-80.9
X94.5Y-81.2
X98.1Y-72.0
X98.1Y-73.9
X99.75Y-77.0
X99.75Y-83.0
X107.029Y-81.971
X110.313Y-79.903
X111.7Y-80.1
X111.9Y-81.0
X113.75Y-84.0
X115.75Y-82.0
X119.1Y-72.0
X119.1Y-73.9
X119.3Y-82.9
X119.8Y-77.8
X128.7Y-82.0
X131.5Y-80.1
X132.6Y-81.0
X132.8Y-80.2
X134.75Y-84.0
X136.75Y-81.75
X140.0Y-72.0
X140.0Y-73.9
X140.6Y-82.9
X140.8Y-77.8
X149.5Y-82.0
X152.3Y-80.2
X153.4Y-80.1
X154.25Y-80.75
X157.6Y-81.2
X161.1Y-73.9
X161.179Y-71.979
X162.6Y-77.0
X162.892Y-82.777
X170.029Y-81.971
X173.658Y-80.058
X175.0Y-80.0
X175.5Y-80.625
X177.0Y-84.0
X178.75Y-81.625
X182.2Y-72.0
X182.2Y-73.9
X182.8Y-77.8
X183.0Y-82.0
X192.75Y-82.0
X195.15Y-79.966
X195.521Y-80.675
X199.975Y-79.141
T2
X52.0Y-72.0
X52.0Y-74.54
X52.0Y-77.08
X52.0Y-79.62
X202.0Y-72.0
X202.0Y-74.54
X202.0Y-77.08
X202.0Y-79.62
M30
